%TF.GenerationSoftware,KiCad,Pcbnew,(6.0.1)*%
%TF.CreationDate,2023-10-20T16:16:52-04:00*%
%TF.ProjectId,MainMicro,4d61696e-4d69-4637-926f-2e6b69636164,rev?*%
%TF.SameCoordinates,Original*%
%TF.FileFunction,Legend,Bot*%
%TF.FilePolarity,Positive*%
%FSLAX46Y46*%
G04 Gerber Fmt 4.6, Leading zero omitted, Abs format (unit mm)*
G04 Created by KiCad (PCBNEW (6.0.1)) date 2023-10-20 16:16:52*
%MOMM*%
%LPD*%
G01*
G04 APERTURE LIST*
G04 Aperture macros list*
%AMRoundRect*
0 Rectangle with rounded corners*
0 $1 Rounding radius*
0 $2 $3 $4 $5 $6 $7 $8 $9 X,Y pos of 4 corners*
0 Add a 4 corners polygon primitive as box body*
4,1,4,$2,$3,$4,$5,$6,$7,$8,$9,$2,$3,0*
0 Add four circle primitives for the rounded corners*
1,1,$1+$1,$2,$3*
1,1,$1+$1,$4,$5*
1,1,$1+$1,$6,$7*
1,1,$1+$1,$8,$9*
0 Add four rect primitives between the rounded corners*
20,1,$1+$1,$2,$3,$4,$5,0*
20,1,$1+$1,$4,$5,$6,$7,0*
20,1,$1+$1,$6,$7,$8,$9,0*
20,1,$1+$1,$8,$9,$2,$3,0*%
G04 Aperture macros list end*
%ADD10C,0.150000*%
%ADD11C,0.120000*%
%ADD12RoundRect,0.250000X-0.725000X0.600000X-0.725000X-0.600000X0.725000X-0.600000X0.725000X0.600000X0*%
%ADD13O,1.950000X1.700000*%
%ADD14RoundRect,0.250000X0.725000X-0.600000X0.725000X0.600000X-0.725000X0.600000X-0.725000X-0.600000X0*%
%ADD15C,2.700000*%
%ADD16RoundRect,0.250000X-0.600000X-0.725000X0.600000X-0.725000X0.600000X0.725000X-0.600000X0.725000X0*%
%ADD17O,1.700000X1.950000*%
%ADD18RoundRect,0.250000X0.600000X0.750000X-0.600000X0.750000X-0.600000X-0.750000X0.600000X-0.750000X0*%
%ADD19O,1.700000X2.000000*%
%ADD20RoundRect,0.250000X0.600000X-0.600000X0.600000X0.600000X-0.600000X0.600000X-0.600000X-0.600000X0*%
%ADD21C,1.700000*%
%ADD22O,1.550000X0.890000*%
%ADD23O,0.950000X1.250000*%
%ADD24R,2.600000X2.600000*%
%ADD25C,2.600000*%
%ADD26RoundRect,0.250000X0.600000X0.725000X-0.600000X0.725000X-0.600000X-0.725000X0.600000X-0.725000X0*%
%ADD27RoundRect,0.250000X-0.350000X-0.450000X0.350000X-0.450000X0.350000X0.450000X-0.350000X0.450000X0*%
%ADD28RoundRect,0.250000X-0.450000X0.350000X-0.450000X-0.350000X0.450000X-0.350000X0.450000X0.350000X0*%
%ADD29RoundRect,0.250000X-0.325000X-0.450000X0.325000X-0.450000X0.325000X0.450000X-0.325000X0.450000X0*%
%ADD30RoundRect,0.250000X0.450000X-0.350000X0.450000X0.350000X-0.450000X0.350000X-0.450000X-0.350000X0*%
%ADD31RoundRect,0.250000X0.337500X0.475000X-0.337500X0.475000X-0.337500X-0.475000X0.337500X-0.475000X0*%
%ADD32RoundRect,0.250000X0.475000X-0.337500X0.475000X0.337500X-0.475000X0.337500X-0.475000X-0.337500X0*%
%ADD33RoundRect,0.250000X-0.475000X0.337500X-0.475000X-0.337500X0.475000X-0.337500X0.475000X0.337500X0*%
%ADD34RoundRect,0.250000X0.350000X0.450000X-0.350000X0.450000X-0.350000X-0.450000X0.350000X-0.450000X0*%
%ADD35RoundRect,0.250000X-0.337500X-0.475000X0.337500X-0.475000X0.337500X0.475000X-0.337500X0.475000X0*%
%ADD36C,0.800000*%
%ADD37C,0.700000*%
G04 APERTURE END LIST*
D10*
X200540857Y-101290380D02*
X200874190Y-100814190D01*
X201112285Y-101290380D02*
X201112285Y-100290380D01*
X200731333Y-100290380D01*
X200636095Y-100338000D01*
X200588476Y-100385619D01*
X200540857Y-100480857D01*
X200540857Y-100623714D01*
X200588476Y-100718952D01*
X200636095Y-100766571D01*
X200731333Y-100814190D01*
X201112285Y-100814190D01*
X199588476Y-101290380D02*
X200159904Y-101290380D01*
X199874190Y-101290380D02*
X199874190Y-100290380D01*
X199969428Y-100433238D01*
X200064666Y-100528476D01*
X200159904Y-100576095D01*
X198683714Y-100290380D02*
X199159904Y-100290380D01*
X199207523Y-100766571D01*
X199159904Y-100718952D01*
X199064666Y-100671333D01*
X198826571Y-100671333D01*
X198731333Y-100718952D01*
X198683714Y-100766571D01*
X198636095Y-100861809D01*
X198636095Y-101099904D01*
X198683714Y-101195142D01*
X198731333Y-101242761D01*
X198826571Y-101290380D01*
X199064666Y-101290380D01*
X199159904Y-101242761D01*
X199207523Y-101195142D01*
X172886666Y-77922380D02*
X173220000Y-77446190D01*
X173458095Y-77922380D02*
X173458095Y-76922380D01*
X173077142Y-76922380D01*
X172981904Y-76970000D01*
X172934285Y-77017619D01*
X172886666Y-77112857D01*
X172886666Y-77255714D01*
X172934285Y-77350952D01*
X172981904Y-77398571D01*
X173077142Y-77446190D01*
X173458095Y-77446190D01*
X172029523Y-76922380D02*
X172220000Y-76922380D01*
X172315238Y-76970000D01*
X172362857Y-77017619D01*
X172458095Y-77160476D01*
X172505714Y-77350952D01*
X172505714Y-77731904D01*
X172458095Y-77827142D01*
X172410476Y-77874761D01*
X172315238Y-77922380D01*
X172124761Y-77922380D01*
X172029523Y-77874761D01*
X171981904Y-77827142D01*
X171934285Y-77731904D01*
X171934285Y-77493809D01*
X171981904Y-77398571D01*
X172029523Y-77350952D01*
X172124761Y-77303333D01*
X172315238Y-77303333D01*
X172410476Y-77350952D01*
X172458095Y-77398571D01*
X172505714Y-77493809D01*
X192095333Y-95686571D02*
X192428666Y-95686571D01*
X192428666Y-96210380D02*
X192428666Y-95210380D01*
X191952476Y-95210380D01*
X191238190Y-95686571D02*
X191095333Y-95734190D01*
X191047714Y-95781809D01*
X191000095Y-95877047D01*
X191000095Y-96019904D01*
X191047714Y-96115142D01*
X191095333Y-96162761D01*
X191190571Y-96210380D01*
X191571523Y-96210380D01*
X191571523Y-95210380D01*
X191238190Y-95210380D01*
X191142952Y-95258000D01*
X191095333Y-95305619D01*
X191047714Y-95400857D01*
X191047714Y-95496095D01*
X191095333Y-95591333D01*
X191142952Y-95638952D01*
X191238190Y-95686571D01*
X191571523Y-95686571D01*
X190047714Y-96210380D02*
X190619142Y-96210380D01*
X190333428Y-96210380D02*
X190333428Y-95210380D01*
X190428666Y-95353238D01*
X190523904Y-95448476D01*
X190619142Y-95496095D01*
X155074857Y-76144380D02*
X155408190Y-75668190D01*
X155646285Y-76144380D02*
X155646285Y-75144380D01*
X155265333Y-75144380D01*
X155170095Y-75192000D01*
X155122476Y-75239619D01*
X155074857Y-75334857D01*
X155074857Y-75477714D01*
X155122476Y-75572952D01*
X155170095Y-75620571D01*
X155265333Y-75668190D01*
X155646285Y-75668190D01*
X154122476Y-76144380D02*
X154693904Y-76144380D01*
X154408190Y-76144380D02*
X154408190Y-75144380D01*
X154503428Y-75287238D01*
X154598666Y-75382476D01*
X154693904Y-75430095D01*
X153551047Y-75572952D02*
X153646285Y-75525333D01*
X153693904Y-75477714D01*
X153741523Y-75382476D01*
X153741523Y-75334857D01*
X153693904Y-75239619D01*
X153646285Y-75192000D01*
X153551047Y-75144380D01*
X153360571Y-75144380D01*
X153265333Y-75192000D01*
X153217714Y-75239619D01*
X153170095Y-75334857D01*
X153170095Y-75382476D01*
X153217714Y-75477714D01*
X153265333Y-75525333D01*
X153360571Y-75572952D01*
X153551047Y-75572952D01*
X153646285Y-75620571D01*
X153693904Y-75668190D01*
X153741523Y-75763428D01*
X153741523Y-75953904D01*
X153693904Y-76049142D01*
X153646285Y-76096761D01*
X153551047Y-76144380D01*
X153360571Y-76144380D01*
X153265333Y-76096761D01*
X153217714Y-76049142D01*
X153170095Y-75953904D01*
X153170095Y-75763428D01*
X153217714Y-75668190D01*
X153265333Y-75620571D01*
X153360571Y-75572952D01*
X187110666Y-101449142D02*
X187158285Y-101496761D01*
X187301142Y-101544380D01*
X187396380Y-101544380D01*
X187539238Y-101496761D01*
X187634476Y-101401523D01*
X187682095Y-101306285D01*
X187729714Y-101115809D01*
X187729714Y-100972952D01*
X187682095Y-100782476D01*
X187634476Y-100687238D01*
X187539238Y-100592000D01*
X187396380Y-100544380D01*
X187301142Y-100544380D01*
X187158285Y-100592000D01*
X187110666Y-100639619D01*
X186205904Y-100544380D02*
X186682095Y-100544380D01*
X186729714Y-101020571D01*
X186682095Y-100972952D01*
X186586857Y-100925333D01*
X186348761Y-100925333D01*
X186253523Y-100972952D01*
X186205904Y-101020571D01*
X186158285Y-101115809D01*
X186158285Y-101353904D01*
X186205904Y-101449142D01*
X186253523Y-101496761D01*
X186348761Y-101544380D01*
X186586857Y-101544380D01*
X186682095Y-101496761D01*
X186729714Y-101449142D01*
X169806857Y-82907142D02*
X169854476Y-82954761D01*
X169997333Y-83002380D01*
X170092571Y-83002380D01*
X170235428Y-82954761D01*
X170330666Y-82859523D01*
X170378285Y-82764285D01*
X170425904Y-82573809D01*
X170425904Y-82430952D01*
X170378285Y-82240476D01*
X170330666Y-82145238D01*
X170235428Y-82050000D01*
X170092571Y-82002380D01*
X169997333Y-82002380D01*
X169854476Y-82050000D01*
X169806857Y-82097619D01*
X168854476Y-83002380D02*
X169425904Y-83002380D01*
X169140190Y-83002380D02*
X169140190Y-82002380D01*
X169235428Y-82145238D01*
X169330666Y-82240476D01*
X169425904Y-82288095D01*
X168521142Y-82002380D02*
X167902095Y-82002380D01*
X168235428Y-82383333D01*
X168092571Y-82383333D01*
X167997333Y-82430952D01*
X167949714Y-82478571D01*
X167902095Y-82573809D01*
X167902095Y-82811904D01*
X167949714Y-82907142D01*
X167997333Y-82954761D01*
X168092571Y-83002380D01*
X168378285Y-83002380D01*
X168473523Y-82954761D01*
X168521142Y-82907142D01*
X172217142Y-104989333D02*
X172264761Y-104941714D01*
X172312380Y-104798857D01*
X172312380Y-104703619D01*
X172264761Y-104560761D01*
X172169523Y-104465523D01*
X172074285Y-104417904D01*
X171883809Y-104370285D01*
X171740952Y-104370285D01*
X171550476Y-104417904D01*
X171455238Y-104465523D01*
X171360000Y-104560761D01*
X171312380Y-104703619D01*
X171312380Y-104798857D01*
X171360000Y-104941714D01*
X171407619Y-104989333D01*
X172312380Y-105941714D02*
X172312380Y-105370285D01*
X172312380Y-105656000D02*
X171312380Y-105656000D01*
X171455238Y-105560761D01*
X171550476Y-105465523D01*
X171598095Y-105370285D01*
X157360857Y-73604380D02*
X157694190Y-73128190D01*
X157932285Y-73604380D02*
X157932285Y-72604380D01*
X157551333Y-72604380D01*
X157456095Y-72652000D01*
X157408476Y-72699619D01*
X157360857Y-72794857D01*
X157360857Y-72937714D01*
X157408476Y-73032952D01*
X157456095Y-73080571D01*
X157551333Y-73128190D01*
X157932285Y-73128190D01*
X156408476Y-73604380D02*
X156979904Y-73604380D01*
X156694190Y-73604380D02*
X156694190Y-72604380D01*
X156789428Y-72747238D01*
X156884666Y-72842476D01*
X156979904Y-72890095D01*
X155932285Y-73604380D02*
X155741809Y-73604380D01*
X155646571Y-73556761D01*
X155598952Y-73509142D01*
X155503714Y-73366285D01*
X155456095Y-73175809D01*
X155456095Y-72794857D01*
X155503714Y-72699619D01*
X155551333Y-72652000D01*
X155646571Y-72604380D01*
X155837047Y-72604380D01*
X155932285Y-72652000D01*
X155979904Y-72699619D01*
X156027523Y-72794857D01*
X156027523Y-73032952D01*
X155979904Y-73128190D01*
X155932285Y-73175809D01*
X155837047Y-73223428D01*
X155646571Y-73223428D01*
X155551333Y-73175809D01*
X155503714Y-73128190D01*
X155456095Y-73032952D01*
X178411142Y-90257333D02*
X178458761Y-90209714D01*
X178506380Y-90066857D01*
X178506380Y-89971619D01*
X178458761Y-89828761D01*
X178363523Y-89733523D01*
X178268285Y-89685904D01*
X178077809Y-89638285D01*
X177934952Y-89638285D01*
X177744476Y-89685904D01*
X177649238Y-89733523D01*
X177554000Y-89828761D01*
X177506380Y-89971619D01*
X177506380Y-90066857D01*
X177554000Y-90209714D01*
X177601619Y-90257333D01*
X177934952Y-90828761D02*
X177887333Y-90733523D01*
X177839714Y-90685904D01*
X177744476Y-90638285D01*
X177696857Y-90638285D01*
X177601619Y-90685904D01*
X177554000Y-90733523D01*
X177506380Y-90828761D01*
X177506380Y-91019238D01*
X177554000Y-91114476D01*
X177601619Y-91162095D01*
X177696857Y-91209714D01*
X177744476Y-91209714D01*
X177839714Y-91162095D01*
X177887333Y-91114476D01*
X177934952Y-91019238D01*
X177934952Y-90828761D01*
X177982571Y-90733523D01*
X178030190Y-90685904D01*
X178125428Y-90638285D01*
X178315904Y-90638285D01*
X178411142Y-90685904D01*
X178458761Y-90733523D01*
X178506380Y-90828761D01*
X178506380Y-91019238D01*
X178458761Y-91114476D01*
X178411142Y-91162095D01*
X178315904Y-91209714D01*
X178125428Y-91209714D01*
X178030190Y-91162095D01*
X177982571Y-91114476D01*
X177934952Y-91019238D01*
X195746666Y-105100380D02*
X196080000Y-104624190D01*
X196318095Y-105100380D02*
X196318095Y-104100380D01*
X195937142Y-104100380D01*
X195841904Y-104148000D01*
X195794285Y-104195619D01*
X195746666Y-104290857D01*
X195746666Y-104433714D01*
X195794285Y-104528952D01*
X195841904Y-104576571D01*
X195937142Y-104624190D01*
X196318095Y-104624190D01*
X195270476Y-105100380D02*
X195080000Y-105100380D01*
X194984761Y-105052761D01*
X194937142Y-105005142D01*
X194841904Y-104862285D01*
X194794285Y-104671809D01*
X194794285Y-104290857D01*
X194841904Y-104195619D01*
X194889523Y-104148000D01*
X194984761Y-104100380D01*
X195175238Y-104100380D01*
X195270476Y-104148000D01*
X195318095Y-104195619D01*
X195365714Y-104290857D01*
X195365714Y-104528952D01*
X195318095Y-104624190D01*
X195270476Y-104671809D01*
X195175238Y-104719428D01*
X194984761Y-104719428D01*
X194889523Y-104671809D01*
X194841904Y-104624190D01*
X194794285Y-104528952D01*
X199334380Y-88511142D02*
X198858190Y-88177809D01*
X199334380Y-87939714D02*
X198334380Y-87939714D01*
X198334380Y-88320666D01*
X198382000Y-88415904D01*
X198429619Y-88463523D01*
X198524857Y-88511142D01*
X198667714Y-88511142D01*
X198762952Y-88463523D01*
X198810571Y-88415904D01*
X198858190Y-88320666D01*
X198858190Y-87939714D01*
X199334380Y-89463523D02*
X199334380Y-88892095D01*
X199334380Y-89177809D02*
X198334380Y-89177809D01*
X198477238Y-89082571D01*
X198572476Y-88987333D01*
X198620095Y-88892095D01*
X198667714Y-90320666D02*
X199334380Y-90320666D01*
X198286761Y-90082571D02*
X199001047Y-89844476D01*
X199001047Y-90463523D01*
X175172666Y-85288380D02*
X175506000Y-84812190D01*
X175744095Y-85288380D02*
X175744095Y-84288380D01*
X175363142Y-84288380D01*
X175267904Y-84336000D01*
X175220285Y-84383619D01*
X175172666Y-84478857D01*
X175172666Y-84621714D01*
X175220285Y-84716952D01*
X175267904Y-84764571D01*
X175363142Y-84812190D01*
X175744095Y-84812190D01*
X174791714Y-84383619D02*
X174744095Y-84336000D01*
X174648857Y-84288380D01*
X174410761Y-84288380D01*
X174315523Y-84336000D01*
X174267904Y-84383619D01*
X174220285Y-84478857D01*
X174220285Y-84574095D01*
X174267904Y-84716952D01*
X174839333Y-85288380D01*
X174220285Y-85288380D01*
X163710857Y-79351142D02*
X163758476Y-79398761D01*
X163901333Y-79446380D01*
X163996571Y-79446380D01*
X164139428Y-79398761D01*
X164234666Y-79303523D01*
X164282285Y-79208285D01*
X164329904Y-79017809D01*
X164329904Y-78874952D01*
X164282285Y-78684476D01*
X164234666Y-78589238D01*
X164139428Y-78494000D01*
X163996571Y-78446380D01*
X163901333Y-78446380D01*
X163758476Y-78494000D01*
X163710857Y-78541619D01*
X162758476Y-79446380D02*
X163329904Y-79446380D01*
X163044190Y-79446380D02*
X163044190Y-78446380D01*
X163139428Y-78589238D01*
X163234666Y-78684476D01*
X163329904Y-78732095D01*
X161901333Y-78779714D02*
X161901333Y-79446380D01*
X162139428Y-78398761D02*
X162377523Y-79113047D01*
X161758476Y-79113047D01*
X157350642Y-97147142D02*
X157398261Y-97099523D01*
X157445880Y-96956666D01*
X157445880Y-96861428D01*
X157398261Y-96718571D01*
X157303023Y-96623333D01*
X157207785Y-96575714D01*
X157017309Y-96528095D01*
X156874452Y-96528095D01*
X156683976Y-96575714D01*
X156588738Y-96623333D01*
X156493500Y-96718571D01*
X156445880Y-96861428D01*
X156445880Y-96956666D01*
X156493500Y-97099523D01*
X156541119Y-97147142D01*
X157445880Y-98099523D02*
X157445880Y-97528095D01*
X157445880Y-97813809D02*
X156445880Y-97813809D01*
X156588738Y-97718571D01*
X156683976Y-97623333D01*
X156731595Y-97528095D01*
X156445880Y-98718571D02*
X156445880Y-98813809D01*
X156493500Y-98909047D01*
X156541119Y-98956666D01*
X156636357Y-99004285D01*
X156826833Y-99051904D01*
X157064928Y-99051904D01*
X157255404Y-99004285D01*
X157350642Y-98956666D01*
X157398261Y-98909047D01*
X157445880Y-98813809D01*
X157445880Y-98718571D01*
X157398261Y-98623333D01*
X157350642Y-98575714D01*
X157255404Y-98528095D01*
X157064928Y-98480476D01*
X156826833Y-98480476D01*
X156636357Y-98528095D01*
X156541119Y-98575714D01*
X156493500Y-98623333D01*
X156445880Y-98718571D01*
X189936380Y-108291333D02*
X189460190Y-107958000D01*
X189936380Y-107719904D02*
X188936380Y-107719904D01*
X188936380Y-108100857D01*
X188984000Y-108196095D01*
X189031619Y-108243714D01*
X189126857Y-108291333D01*
X189269714Y-108291333D01*
X189364952Y-108243714D01*
X189412571Y-108196095D01*
X189460190Y-108100857D01*
X189460190Y-107719904D01*
X189364952Y-108862761D02*
X189317333Y-108767523D01*
X189269714Y-108719904D01*
X189174476Y-108672285D01*
X189126857Y-108672285D01*
X189031619Y-108719904D01*
X188984000Y-108767523D01*
X188936380Y-108862761D01*
X188936380Y-109053238D01*
X188984000Y-109148476D01*
X189031619Y-109196095D01*
X189126857Y-109243714D01*
X189174476Y-109243714D01*
X189269714Y-109196095D01*
X189317333Y-109148476D01*
X189364952Y-109053238D01*
X189364952Y-108862761D01*
X189412571Y-108767523D01*
X189460190Y-108719904D01*
X189555428Y-108672285D01*
X189745904Y-108672285D01*
X189841142Y-108719904D01*
X189888761Y-108767523D01*
X189936380Y-108862761D01*
X189936380Y-109053238D01*
X189888761Y-109148476D01*
X189841142Y-109196095D01*
X189745904Y-109243714D01*
X189555428Y-109243714D01*
X189460190Y-109196095D01*
X189412571Y-109148476D01*
X189364952Y-109053238D01*
X182221142Y-95845333D02*
X182268761Y-95797714D01*
X182316380Y-95654857D01*
X182316380Y-95559619D01*
X182268761Y-95416761D01*
X182173523Y-95321523D01*
X182078285Y-95273904D01*
X181887809Y-95226285D01*
X181744952Y-95226285D01*
X181554476Y-95273904D01*
X181459238Y-95321523D01*
X181364000Y-95416761D01*
X181316380Y-95559619D01*
X181316380Y-95654857D01*
X181364000Y-95797714D01*
X181411619Y-95845333D01*
X182316380Y-96321523D02*
X182316380Y-96512000D01*
X182268761Y-96607238D01*
X182221142Y-96654857D01*
X182078285Y-96750095D01*
X181887809Y-96797714D01*
X181506857Y-96797714D01*
X181411619Y-96750095D01*
X181364000Y-96702476D01*
X181316380Y-96607238D01*
X181316380Y-96416761D01*
X181364000Y-96321523D01*
X181411619Y-96273904D01*
X181506857Y-96226285D01*
X181744952Y-96226285D01*
X181840190Y-96273904D01*
X181887809Y-96321523D01*
X181935428Y-96416761D01*
X181935428Y-96607238D01*
X181887809Y-96702476D01*
X181840190Y-96750095D01*
X181744952Y-96797714D01*
X171531642Y-87749142D02*
X171579261Y-87701523D01*
X171626880Y-87558666D01*
X171626880Y-87463428D01*
X171579261Y-87320571D01*
X171484023Y-87225333D01*
X171388785Y-87177714D01*
X171198309Y-87130095D01*
X171055452Y-87130095D01*
X170864976Y-87177714D01*
X170769738Y-87225333D01*
X170674500Y-87320571D01*
X170626880Y-87463428D01*
X170626880Y-87558666D01*
X170674500Y-87701523D01*
X170722119Y-87749142D01*
X171626880Y-88701523D02*
X171626880Y-88130095D01*
X171626880Y-88415809D02*
X170626880Y-88415809D01*
X170769738Y-88320571D01*
X170864976Y-88225333D01*
X170912595Y-88130095D01*
X171626880Y-89653904D02*
X171626880Y-89082476D01*
X171626880Y-89368190D02*
X170626880Y-89368190D01*
X170769738Y-89272952D01*
X170864976Y-89177714D01*
X170912595Y-89082476D01*
X195206857Y-74874380D02*
X195540190Y-74398190D01*
X195778285Y-74874380D02*
X195778285Y-73874380D01*
X195397333Y-73874380D01*
X195302095Y-73922000D01*
X195254476Y-73969619D01*
X195206857Y-74064857D01*
X195206857Y-74207714D01*
X195254476Y-74302952D01*
X195302095Y-74350571D01*
X195397333Y-74398190D01*
X195778285Y-74398190D01*
X194254476Y-74874380D02*
X194825904Y-74874380D01*
X194540190Y-74874380D02*
X194540190Y-73874380D01*
X194635428Y-74017238D01*
X194730666Y-74112476D01*
X194825904Y-74160095D01*
X193921142Y-73874380D02*
X193302095Y-73874380D01*
X193635428Y-74255333D01*
X193492571Y-74255333D01*
X193397333Y-74302952D01*
X193349714Y-74350571D01*
X193302095Y-74445809D01*
X193302095Y-74683904D01*
X193349714Y-74779142D01*
X193397333Y-74826761D01*
X193492571Y-74874380D01*
X193778285Y-74874380D01*
X193873523Y-74826761D01*
X193921142Y-74779142D01*
X189079142Y-90003333D02*
X189126761Y-89955714D01*
X189174380Y-89812857D01*
X189174380Y-89717619D01*
X189126761Y-89574761D01*
X189031523Y-89479523D01*
X188936285Y-89431904D01*
X188745809Y-89384285D01*
X188602952Y-89384285D01*
X188412476Y-89431904D01*
X188317238Y-89479523D01*
X188222000Y-89574761D01*
X188174380Y-89717619D01*
X188174380Y-89812857D01*
X188222000Y-89955714D01*
X188269619Y-90003333D01*
X188507714Y-90860476D02*
X189174380Y-90860476D01*
X188126761Y-90622380D02*
X188841047Y-90384285D01*
X188841047Y-91003333D01*
X182252857Y-80367142D02*
X182300476Y-80414761D01*
X182443333Y-80462380D01*
X182538571Y-80462380D01*
X182681428Y-80414761D01*
X182776666Y-80319523D01*
X182824285Y-80224285D01*
X182871904Y-80033809D01*
X182871904Y-79890952D01*
X182824285Y-79700476D01*
X182776666Y-79605238D01*
X182681428Y-79510000D01*
X182538571Y-79462380D01*
X182443333Y-79462380D01*
X182300476Y-79510000D01*
X182252857Y-79557619D01*
X181300476Y-80462380D02*
X181871904Y-80462380D01*
X181586190Y-80462380D02*
X181586190Y-79462380D01*
X181681428Y-79605238D01*
X181776666Y-79700476D01*
X181871904Y-79748095D01*
X180919523Y-79557619D02*
X180871904Y-79510000D01*
X180776666Y-79462380D01*
X180538571Y-79462380D01*
X180443333Y-79510000D01*
X180395714Y-79557619D01*
X180348095Y-79652857D01*
X180348095Y-79748095D01*
X180395714Y-79890952D01*
X180967142Y-80462380D01*
X180348095Y-80462380D01*
X203842857Y-81986380D02*
X204176190Y-81510190D01*
X204414285Y-81986380D02*
X204414285Y-80986380D01*
X204033333Y-80986380D01*
X203938095Y-81034000D01*
X203890476Y-81081619D01*
X203842857Y-81176857D01*
X203842857Y-81319714D01*
X203890476Y-81414952D01*
X203938095Y-81462571D01*
X204033333Y-81510190D01*
X204414285Y-81510190D01*
X202890476Y-81986380D02*
X203461904Y-81986380D01*
X203176190Y-81986380D02*
X203176190Y-80986380D01*
X203271428Y-81129238D01*
X203366666Y-81224476D01*
X203461904Y-81272095D01*
X201938095Y-81986380D02*
X202509523Y-81986380D01*
X202223809Y-81986380D02*
X202223809Y-80986380D01*
X202319047Y-81129238D01*
X202414285Y-81224476D01*
X202509523Y-81272095D01*
X168790857Y-75762380D02*
X169124190Y-75286190D01*
X169362285Y-75762380D02*
X169362285Y-74762380D01*
X168981333Y-74762380D01*
X168886095Y-74810000D01*
X168838476Y-74857619D01*
X168790857Y-74952857D01*
X168790857Y-75095714D01*
X168838476Y-75190952D01*
X168886095Y-75238571D01*
X168981333Y-75286190D01*
X169362285Y-75286190D01*
X168409904Y-74857619D02*
X168362285Y-74810000D01*
X168267047Y-74762380D01*
X168028952Y-74762380D01*
X167933714Y-74810000D01*
X167886095Y-74857619D01*
X167838476Y-74952857D01*
X167838476Y-75048095D01*
X167886095Y-75190952D01*
X168457523Y-75762380D01*
X167838476Y-75762380D01*
X166886095Y-75762380D02*
X167457523Y-75762380D01*
X167171809Y-75762380D02*
X167171809Y-74762380D01*
X167267047Y-74905238D01*
X167362285Y-75000476D01*
X167457523Y-75048095D01*
X184316666Y-91543142D02*
X184364285Y-91590761D01*
X184507142Y-91638380D01*
X184602380Y-91638380D01*
X184745238Y-91590761D01*
X184840476Y-91495523D01*
X184888095Y-91400285D01*
X184935714Y-91209809D01*
X184935714Y-91066952D01*
X184888095Y-90876476D01*
X184840476Y-90781238D01*
X184745238Y-90686000D01*
X184602380Y-90638380D01*
X184507142Y-90638380D01*
X184364285Y-90686000D01*
X184316666Y-90733619D01*
X183459523Y-90638380D02*
X183650000Y-90638380D01*
X183745238Y-90686000D01*
X183792857Y-90733619D01*
X183888095Y-90876476D01*
X183935714Y-91066952D01*
X183935714Y-91447904D01*
X183888095Y-91543142D01*
X183840476Y-91590761D01*
X183745238Y-91638380D01*
X183554761Y-91638380D01*
X183459523Y-91590761D01*
X183411904Y-91543142D01*
X183364285Y-91447904D01*
X183364285Y-91209809D01*
X183411904Y-91114571D01*
X183459523Y-91066952D01*
X183554761Y-91019333D01*
X183745238Y-91019333D01*
X183840476Y-91066952D01*
X183888095Y-91114571D01*
X183935714Y-91209809D01*
X155836857Y-81860380D02*
X156170190Y-81384190D01*
X156408285Y-81860380D02*
X156408285Y-80860380D01*
X156027333Y-80860380D01*
X155932095Y-80908000D01*
X155884476Y-80955619D01*
X155836857Y-81050857D01*
X155836857Y-81193714D01*
X155884476Y-81288952D01*
X155932095Y-81336571D01*
X156027333Y-81384190D01*
X156408285Y-81384190D01*
X154884476Y-81860380D02*
X155455904Y-81860380D01*
X155170190Y-81860380D02*
X155170190Y-80860380D01*
X155265428Y-81003238D01*
X155360666Y-81098476D01*
X155455904Y-81146095D01*
X154551142Y-80860380D02*
X153884476Y-80860380D01*
X154313047Y-81860380D01*
X155836857Y-87828380D02*
X156170190Y-87352190D01*
X156408285Y-87828380D02*
X156408285Y-86828380D01*
X156027333Y-86828380D01*
X155932095Y-86876000D01*
X155884476Y-86923619D01*
X155836857Y-87018857D01*
X155836857Y-87161714D01*
X155884476Y-87256952D01*
X155932095Y-87304571D01*
X156027333Y-87352190D01*
X156408285Y-87352190D01*
X154884476Y-87828380D02*
X155455904Y-87828380D01*
X155170190Y-87828380D02*
X155170190Y-86828380D01*
X155265428Y-86971238D01*
X155360666Y-87066476D01*
X155455904Y-87114095D01*
X154027333Y-86828380D02*
X154217809Y-86828380D01*
X154313047Y-86876000D01*
X154360666Y-86923619D01*
X154455904Y-87066476D01*
X154503523Y-87256952D01*
X154503523Y-87637904D01*
X154455904Y-87733142D01*
X154408285Y-87780761D01*
X154313047Y-87828380D01*
X154122571Y-87828380D01*
X154027333Y-87780761D01*
X153979714Y-87733142D01*
X153932095Y-87637904D01*
X153932095Y-87399809D01*
X153979714Y-87304571D01*
X154027333Y-87256952D01*
X154122571Y-87209333D01*
X154313047Y-87209333D01*
X154408285Y-87256952D01*
X154455904Y-87304571D01*
X154503523Y-87399809D01*
X173902666Y-102211142D02*
X173950285Y-102258761D01*
X174093142Y-102306380D01*
X174188380Y-102306380D01*
X174331238Y-102258761D01*
X174426476Y-102163523D01*
X174474095Y-102068285D01*
X174521714Y-101877809D01*
X174521714Y-101734952D01*
X174474095Y-101544476D01*
X174426476Y-101449238D01*
X174331238Y-101354000D01*
X174188380Y-101306380D01*
X174093142Y-101306380D01*
X173950285Y-101354000D01*
X173902666Y-101401619D01*
X173521714Y-101401619D02*
X173474095Y-101354000D01*
X173378857Y-101306380D01*
X173140761Y-101306380D01*
X173045523Y-101354000D01*
X172997904Y-101401619D01*
X172950285Y-101496857D01*
X172950285Y-101592095D01*
X172997904Y-101734952D01*
X173569333Y-102306380D01*
X172950285Y-102306380D01*
X186094666Y-104751142D02*
X186142285Y-104798761D01*
X186285142Y-104846380D01*
X186380380Y-104846380D01*
X186523238Y-104798761D01*
X186618476Y-104703523D01*
X186666095Y-104608285D01*
X186713714Y-104417809D01*
X186713714Y-104274952D01*
X186666095Y-104084476D01*
X186618476Y-103989238D01*
X186523238Y-103894000D01*
X186380380Y-103846380D01*
X186285142Y-103846380D01*
X186142285Y-103894000D01*
X186094666Y-103941619D01*
X185761333Y-103846380D02*
X185094666Y-103846380D01*
X185523238Y-104846380D01*
X188380666Y-77668380D02*
X188714000Y-77192190D01*
X188952095Y-77668380D02*
X188952095Y-76668380D01*
X188571142Y-76668380D01*
X188475904Y-76716000D01*
X188428285Y-76763619D01*
X188380666Y-76858857D01*
X188380666Y-77001714D01*
X188428285Y-77096952D01*
X188475904Y-77144571D01*
X188571142Y-77192190D01*
X188952095Y-77192190D01*
X188047333Y-76668380D02*
X187380666Y-76668380D01*
X187809238Y-77668380D01*
X158853142Y-79367142D02*
X158900761Y-79319523D01*
X158948380Y-79176666D01*
X158948380Y-79081428D01*
X158900761Y-78938571D01*
X158805523Y-78843333D01*
X158710285Y-78795714D01*
X158519809Y-78748095D01*
X158376952Y-78748095D01*
X158186476Y-78795714D01*
X158091238Y-78843333D01*
X157996000Y-78938571D01*
X157948380Y-79081428D01*
X157948380Y-79176666D01*
X157996000Y-79319523D01*
X158043619Y-79367142D01*
X158948380Y-80319523D02*
X158948380Y-79748095D01*
X158948380Y-80033809D02*
X157948380Y-80033809D01*
X158091238Y-79938571D01*
X158186476Y-79843333D01*
X158234095Y-79748095D01*
X157948380Y-81224285D02*
X157948380Y-80748095D01*
X158424571Y-80700476D01*
X158376952Y-80748095D01*
X158329333Y-80843333D01*
X158329333Y-81081428D01*
X158376952Y-81176666D01*
X158424571Y-81224285D01*
X158519809Y-81271904D01*
X158757904Y-81271904D01*
X158853142Y-81224285D01*
X158900761Y-81176666D01*
X158948380Y-81081428D01*
X158948380Y-80843333D01*
X158900761Y-80748095D01*
X158853142Y-80700476D01*
X191682666Y-76652380D02*
X192016000Y-76176190D01*
X192254095Y-76652380D02*
X192254095Y-75652380D01*
X191873142Y-75652380D01*
X191777904Y-75700000D01*
X191730285Y-75747619D01*
X191682666Y-75842857D01*
X191682666Y-75985714D01*
X191730285Y-76080952D01*
X191777904Y-76128571D01*
X191873142Y-76176190D01*
X192254095Y-76176190D01*
X190777904Y-75652380D02*
X191254095Y-75652380D01*
X191301714Y-76128571D01*
X191254095Y-76080952D01*
X191158857Y-76033333D01*
X190920761Y-76033333D01*
X190825523Y-76080952D01*
X190777904Y-76128571D01*
X190730285Y-76223809D01*
X190730285Y-76461904D01*
X190777904Y-76557142D01*
X190825523Y-76604761D01*
X190920761Y-76652380D01*
X191158857Y-76652380D01*
X191254095Y-76604761D01*
X191301714Y-76557142D01*
X163710857Y-75762380D02*
X164044190Y-75286190D01*
X164282285Y-75762380D02*
X164282285Y-74762380D01*
X163901333Y-74762380D01*
X163806095Y-74810000D01*
X163758476Y-74857619D01*
X163710857Y-74952857D01*
X163710857Y-75095714D01*
X163758476Y-75190952D01*
X163806095Y-75238571D01*
X163901333Y-75286190D01*
X164282285Y-75286190D01*
X163329904Y-74857619D02*
X163282285Y-74810000D01*
X163187047Y-74762380D01*
X162948952Y-74762380D01*
X162853714Y-74810000D01*
X162806095Y-74857619D01*
X162758476Y-74952857D01*
X162758476Y-75048095D01*
X162806095Y-75190952D01*
X163377523Y-75762380D01*
X162758476Y-75762380D01*
X162139428Y-74762380D02*
X162044190Y-74762380D01*
X161948952Y-74810000D01*
X161901333Y-74857619D01*
X161853714Y-74952857D01*
X161806095Y-75143333D01*
X161806095Y-75381428D01*
X161853714Y-75571904D01*
X161901333Y-75667142D01*
X161948952Y-75714761D01*
X162044190Y-75762380D01*
X162139428Y-75762380D01*
X162234666Y-75714761D01*
X162282285Y-75667142D01*
X162329904Y-75571904D01*
X162377523Y-75381428D01*
X162377523Y-75143333D01*
X162329904Y-74952857D01*
X162282285Y-74857619D01*
X162234666Y-74810000D01*
X162139428Y-74762380D01*
X200001142Y-105497333D02*
X200048761Y-105449714D01*
X200096380Y-105306857D01*
X200096380Y-105211619D01*
X200048761Y-105068761D01*
X199953523Y-104973523D01*
X199858285Y-104925904D01*
X199667809Y-104878285D01*
X199524952Y-104878285D01*
X199334476Y-104925904D01*
X199239238Y-104973523D01*
X199144000Y-105068761D01*
X199096380Y-105211619D01*
X199096380Y-105306857D01*
X199144000Y-105449714D01*
X199191619Y-105497333D01*
X199096380Y-105830666D02*
X199096380Y-106449714D01*
X199477333Y-106116380D01*
X199477333Y-106259238D01*
X199524952Y-106354476D01*
X199572571Y-106402095D01*
X199667809Y-106449714D01*
X199905904Y-106449714D01*
X200001142Y-106402095D01*
X200048761Y-106354476D01*
X200096380Y-106259238D01*
X200096380Y-105973523D01*
X200048761Y-105878285D01*
X200001142Y-105830666D01*
X198762857Y-78556380D02*
X199096190Y-78080190D01*
X199334285Y-78556380D02*
X199334285Y-77556380D01*
X198953333Y-77556380D01*
X198858095Y-77604000D01*
X198810476Y-77651619D01*
X198762857Y-77746857D01*
X198762857Y-77889714D01*
X198810476Y-77984952D01*
X198858095Y-78032571D01*
X198953333Y-78080190D01*
X199334285Y-78080190D01*
X197810476Y-78556380D02*
X198381904Y-78556380D01*
X198096190Y-78556380D02*
X198096190Y-77556380D01*
X198191428Y-77699238D01*
X198286666Y-77794476D01*
X198381904Y-77842095D01*
X197429523Y-77651619D02*
X197381904Y-77604000D01*
X197286666Y-77556380D01*
X197048571Y-77556380D01*
X196953333Y-77604000D01*
X196905714Y-77651619D01*
X196858095Y-77746857D01*
X196858095Y-77842095D01*
X196905714Y-77984952D01*
X197477142Y-78556380D01*
X196858095Y-78556380D01*
X181236857Y-73763142D02*
X181284476Y-73810761D01*
X181427333Y-73858380D01*
X181522571Y-73858380D01*
X181665428Y-73810761D01*
X181760666Y-73715523D01*
X181808285Y-73620285D01*
X181855904Y-73429809D01*
X181855904Y-73286952D01*
X181808285Y-73096476D01*
X181760666Y-73001238D01*
X181665428Y-72906000D01*
X181522571Y-72858380D01*
X181427333Y-72858380D01*
X181284476Y-72906000D01*
X181236857Y-72953619D01*
X180284476Y-73858380D02*
X180855904Y-73858380D01*
X180570190Y-73858380D02*
X180570190Y-72858380D01*
X180665428Y-73001238D01*
X180760666Y-73096476D01*
X180855904Y-73144095D01*
X179427333Y-72858380D02*
X179617809Y-72858380D01*
X179713047Y-72906000D01*
X179760666Y-72953619D01*
X179855904Y-73096476D01*
X179903523Y-73286952D01*
X179903523Y-73667904D01*
X179855904Y-73763142D01*
X179808285Y-73810761D01*
X179713047Y-73858380D01*
X179522571Y-73858380D01*
X179427333Y-73810761D01*
X179379714Y-73763142D01*
X179332095Y-73667904D01*
X179332095Y-73429809D01*
X179379714Y-73334571D01*
X179427333Y-73286952D01*
X179522571Y-73239333D01*
X179713047Y-73239333D01*
X179808285Y-73286952D01*
X179855904Y-73334571D01*
X179903523Y-73429809D01*
D11*
X204496936Y-100357000D02*
X204951064Y-100357000D01*
X204496936Y-101827000D02*
X204951064Y-101827000D01*
X174217000Y-74702936D02*
X174217000Y-75157064D01*
X172747000Y-74702936D02*
X172747000Y-75157064D01*
X187698748Y-96064000D02*
X188221252Y-96064000D01*
X187698748Y-97484000D02*
X188221252Y-97484000D01*
X154913000Y-78459064D02*
X154913000Y-78004936D01*
X153443000Y-78459064D02*
X153443000Y-78004936D01*
X189766752Y-98579000D02*
X189244248Y-98579000D01*
X189766752Y-100049000D02*
X189244248Y-100049000D01*
X167105000Y-82811252D02*
X167105000Y-82288748D01*
X165635000Y-82811252D02*
X165635000Y-82288748D01*
X170915000Y-105417252D02*
X170915000Y-104894748D01*
X169445000Y-105417252D02*
X169445000Y-104894748D01*
X159993000Y-73633064D02*
X159993000Y-73178936D01*
X158523000Y-73633064D02*
X158523000Y-73178936D01*
X180313000Y-89161252D02*
X180313000Y-88638748D01*
X178843000Y-89161252D02*
X178843000Y-88638748D01*
X195299000Y-108230936D02*
X195299000Y-108685064D01*
X193829000Y-108230936D02*
X193829000Y-108685064D01*
X198147000Y-92937064D02*
X198147000Y-92482936D01*
X199617000Y-92937064D02*
X199617000Y-92482936D01*
X175794936Y-87349000D02*
X176249064Y-87349000D01*
X175794936Y-85879000D02*
X176249064Y-85879000D01*
X164565000Y-81272748D02*
X164565000Y-81795252D01*
X163095000Y-81272748D02*
X163095000Y-81795252D01*
X158015000Y-97528748D02*
X158015000Y-98051252D01*
X159485000Y-97528748D02*
X159485000Y-98051252D01*
X190781000Y-107976936D02*
X190781000Y-108431064D01*
X192251000Y-107976936D02*
X192251000Y-108431064D01*
X182928500Y-98305252D02*
X182928500Y-97782748D01*
X184398500Y-98305252D02*
X184398500Y-97782748D01*
X172239000Y-91955252D02*
X172239000Y-91432748D01*
X173709000Y-91955252D02*
X173709000Y-91432748D01*
X197585064Y-71909000D02*
X197130936Y-71909000D01*
X197585064Y-73379000D02*
X197130936Y-73379000D01*
X187500500Y-92956748D02*
X187500500Y-93479252D01*
X188970500Y-92956748D02*
X188970500Y-93479252D01*
X180586748Y-74449000D02*
X181109252Y-74449000D01*
X180586748Y-75919000D02*
X181109252Y-75919000D01*
X202972936Y-80491000D02*
X203427064Y-80491000D01*
X202972936Y-79021000D02*
X203427064Y-79021000D01*
X167920936Y-74395000D02*
X168375064Y-74395000D01*
X167920936Y-72925000D02*
X168375064Y-72925000D01*
X184418248Y-92229000D02*
X184940752Y-92229000D01*
X184418248Y-93699000D02*
X184940752Y-93699000D01*
X155421064Y-83793000D02*
X154966936Y-83793000D01*
X155421064Y-82323000D02*
X154966936Y-82323000D01*
X155421064Y-84609000D02*
X154966936Y-84609000D01*
X155421064Y-86079000D02*
X154966936Y-86079000D01*
X177045252Y-101881000D02*
X176522748Y-101881000D01*
X177045252Y-103351000D02*
X176522748Y-103351000D01*
X183162752Y-101881000D02*
X182640248Y-101881000D01*
X183162752Y-103351000D02*
X182640248Y-103351000D01*
X186971000Y-74194936D02*
X186971000Y-74649064D01*
X188441000Y-74194936D02*
X188441000Y-74649064D01*
X159539000Y-82288748D02*
X159539000Y-82811252D01*
X161009000Y-82288748D02*
X161009000Y-82811252D01*
X190781000Y-73432936D02*
X190781000Y-73887064D01*
X192251000Y-73432936D02*
X192251000Y-73887064D01*
X162840936Y-74395000D02*
X163295064Y-74395000D01*
X162840936Y-72925000D02*
X163295064Y-72925000D01*
X196877000Y-108211252D02*
X196877000Y-107688748D01*
X198347000Y-108211252D02*
X198347000Y-107688748D01*
X197892936Y-75719000D02*
X198347064Y-75719000D01*
X197892936Y-77189000D02*
X198347064Y-77189000D01*
X181871252Y-77497000D02*
X181348748Y-77497000D01*
X181871252Y-78967000D02*
X181348748Y-78967000D01*
%LPC*%
D12*
X202992000Y-86868000D03*
D13*
X202992000Y-89368000D03*
X202992000Y-91868000D03*
X202992000Y-94368000D03*
X202992000Y-96868000D03*
D14*
X208788000Y-80772000D03*
D13*
X208788000Y-78272000D03*
X208788000Y-75772000D03*
D15*
X208788000Y-69342000D03*
D14*
X202692000Y-74676000D03*
D13*
X202692000Y-72176000D03*
X202692000Y-69676000D03*
D16*
X191810000Y-68788000D03*
D17*
X194310000Y-68788000D03*
X196810000Y-68788000D03*
D12*
X168148000Y-91694000D03*
D13*
X168148000Y-94194000D03*
X168148000Y-96694000D03*
X168148000Y-99194000D03*
D16*
X156718000Y-68834000D03*
D17*
X159218000Y-68834000D03*
X161718000Y-68834000D03*
X164218000Y-68834000D03*
X166718000Y-68834000D03*
X169218000Y-68834000D03*
D18*
X169652000Y-117902000D03*
D19*
X167152000Y-117902000D03*
D15*
X150622000Y-117348000D03*
D16*
X175514000Y-68834000D03*
D17*
X178014000Y-68834000D03*
X180514000Y-68834000D03*
X183014000Y-68834000D03*
X185514000Y-68834000D03*
D20*
X189495000Y-117065000D03*
D21*
X189495000Y-114525000D03*
X192035000Y-117065000D03*
X192035000Y-114525000D03*
X194575000Y-117065000D03*
X194575000Y-114525000D03*
X197115000Y-117065000D03*
X197115000Y-114525000D03*
X199655000Y-117065000D03*
X199655000Y-114525000D03*
D22*
X148814000Y-100782000D03*
D23*
X151514000Y-94782000D03*
D22*
X148814000Y-93782000D03*
D23*
X151514000Y-99782000D03*
D12*
X209296000Y-86868000D03*
D13*
X209296000Y-89368000D03*
X209296000Y-91868000D03*
X209296000Y-94368000D03*
X209296000Y-96868000D03*
D24*
X159016000Y-106068000D03*
D25*
X159016000Y-112068000D03*
X163716000Y-109068000D03*
D26*
X180848000Y-117902000D03*
D17*
X178348000Y-117902000D03*
X175848000Y-117902000D03*
D15*
X209042000Y-117348000D03*
D14*
X150114000Y-87884000D03*
D13*
X150114000Y-85384000D03*
X150114000Y-82884000D03*
X150114000Y-80384000D03*
X150114000Y-77884000D03*
X150114000Y-75384000D03*
D15*
X150368000Y-69088000D03*
D27*
X203724000Y-101092000D03*
X205724000Y-101092000D03*
D28*
X173482000Y-73930000D03*
X173482000Y-75930000D03*
D29*
X186935000Y-96774000D03*
X188985000Y-96774000D03*
D30*
X154178000Y-79232000D03*
X154178000Y-77232000D03*
D31*
X190543000Y-99314000D03*
X188468000Y-99314000D03*
D32*
X166370000Y-83587500D03*
X166370000Y-81512500D03*
X170180000Y-106193500D03*
X170180000Y-104118500D03*
D30*
X159258000Y-74406000D03*
X159258000Y-72406000D03*
D32*
X179578000Y-89937500D03*
X179578000Y-87862500D03*
D28*
X194564000Y-107458000D03*
X194564000Y-109458000D03*
D30*
X198882000Y-93710000D03*
X198882000Y-91710000D03*
D27*
X175022000Y-86614000D03*
X177022000Y-86614000D03*
D33*
X163830000Y-80496500D03*
X163830000Y-82571500D03*
X158750000Y-96752500D03*
X158750000Y-98827500D03*
D28*
X191516000Y-107204000D03*
X191516000Y-109204000D03*
D32*
X183663500Y-99081500D03*
X183663500Y-97006500D03*
X172974000Y-92731500D03*
X172974000Y-90656500D03*
D34*
X198358000Y-72644000D03*
X196358000Y-72644000D03*
D33*
X188235500Y-92180500D03*
X188235500Y-94255500D03*
D35*
X179810500Y-75184000D03*
X181885500Y-75184000D03*
D27*
X202200000Y-79756000D03*
X204200000Y-79756000D03*
X167148000Y-73660000D03*
X169148000Y-73660000D03*
D35*
X183642000Y-92964000D03*
X185717000Y-92964000D03*
D34*
X156194000Y-83058000D03*
X154194000Y-83058000D03*
X156194000Y-85344000D03*
X154194000Y-85344000D03*
D31*
X177821500Y-102616000D03*
X175746500Y-102616000D03*
X183939000Y-102616000D03*
X181864000Y-102616000D03*
D28*
X187706000Y-73422000D03*
X187706000Y-75422000D03*
D33*
X160274000Y-81512500D03*
X160274000Y-83587500D03*
D28*
X191516000Y-72660000D03*
X191516000Y-74660000D03*
D27*
X162068000Y-73660000D03*
X164068000Y-73660000D03*
D32*
X197612000Y-108987500D03*
X197612000Y-106912500D03*
D27*
X197120000Y-76454000D03*
X199120000Y-76454000D03*
D31*
X182647500Y-78232000D03*
X180572500Y-78232000D03*
D36*
X174349023Y-90826977D03*
X174498000Y-92710000D03*
D37*
X163830000Y-84328000D03*
X160274000Y-85598000D03*
D36*
X178308000Y-74676000D03*
D37*
X160274000Y-88367000D03*
D36*
X168148000Y-106680000D03*
X172974000Y-72136000D03*
X153416000Y-102616000D03*
X160549977Y-96795977D03*
D37*
X166624000Y-77724000D03*
X181864000Y-88646000D03*
D36*
X151130000Y-102870000D03*
X184150000Y-76454000D03*
D37*
X182139500Y-98044000D03*
X166370000Y-79756000D03*
X169926000Y-80367500D03*
D36*
X189738000Y-110744000D03*
D37*
X154178000Y-89916000D03*
D36*
X196088000Y-110744000D03*
D37*
X182393500Y-100838000D03*
D36*
X209550000Y-101600000D03*
D37*
X160528000Y-78486000D03*
D36*
X181864000Y-76454000D03*
X168402000Y-114046000D03*
D37*
X188650000Y-100825000D03*
X174752000Y-104140000D03*
D36*
X199644000Y-102616000D03*
D37*
X168910000Y-76962000D03*
X190013500Y-93980000D03*
D36*
X178816000Y-110744000D03*
D37*
X183409500Y-100838000D03*
X193802000Y-89154000D03*
X156718000Y-91694000D03*
X177800000Y-104140000D03*
X181356000Y-106934000D03*
D36*
X179070000Y-76454000D03*
X177800000Y-80264000D03*
D37*
X181356000Y-89662000D03*
X162052000Y-88646000D03*
X190013500Y-100838000D03*
X190013500Y-92710000D03*
X166370000Y-85344000D03*
D36*
X187198000Y-79502000D03*
D37*
X197612000Y-89154000D03*
D36*
X170942000Y-111252000D03*
D37*
X182139500Y-92964000D03*
X155194000Y-100330000D03*
X166325000Y-86825000D03*
X181610000Y-109728000D03*
X178054000Y-96012000D03*
D36*
X199608000Y-108676000D03*
D37*
X173228000Y-88646000D03*
X182175000Y-99075000D03*
D36*
X156972000Y-98806000D03*
X160528000Y-98806000D03*
D37*
X193802000Y-93980000D03*
X194818000Y-99314000D03*
X193548000Y-103378000D03*
X192278000Y-89408000D03*
D36*
X184404000Y-82008971D03*
D37*
X184658000Y-85090000D03*
D36*
X185674000Y-75438000D03*
D37*
X186944000Y-85852000D03*
D36*
X186690000Y-81280000D03*
D37*
X192786000Y-82804000D03*
X190500000Y-85090000D03*
X189878378Y-84187622D03*
X191375622Y-82690378D03*
X181356000Y-83058000D03*
X182118000Y-85666500D03*
X190246000Y-82550000D03*
X189116378Y-83457971D03*
X179832000Y-85666500D03*
X176276000Y-80772000D03*
X183134000Y-86614000D03*
X174519500Y-99822000D03*
D36*
X165862000Y-98806000D03*
D37*
X177292000Y-99822000D03*
X176022000Y-101092000D03*
X177800000Y-100723500D03*
D36*
X173228000Y-97282000D03*
D37*
X158496000Y-85344000D03*
D36*
X155863312Y-98136688D03*
X156210000Y-95758000D03*
X154686000Y-98298000D03*
X156210000Y-94488000D03*
D37*
X196850000Y-98552000D03*
X201930000Y-101092000D03*
X182626000Y-113538000D03*
X193548000Y-97282000D03*
X188976000Y-87630000D03*
X188214000Y-86614000D03*
X187452000Y-87630000D03*
X158496000Y-83058000D03*
X157734000Y-81788000D03*
X159258000Y-76454000D03*
X161544000Y-76454000D03*
X162560000Y-77216000D03*
X183388000Y-106896500D03*
X184404000Y-106896500D03*
X185303503Y-106896500D03*
X186595128Y-106801628D03*
X187960000Y-106426000D03*
X188722000Y-105918000D03*
X189484000Y-105156000D03*
X190246000Y-104140000D03*
D36*
X189484000Y-74676000D03*
X175514000Y-75946000D03*
X185674000Y-82008971D03*
D37*
X185928000Y-85789500D03*
D36*
X169672000Y-113792000D03*
X175768000Y-112776000D03*
D37*
X182372000Y-106896500D03*
M02*
