%TF.GenerationSoftware,KiCad,Pcbnew,(6.0.1)*%
%TF.CreationDate,2023-10-20T14:42:09-04:00*%
%TF.ProjectId,MainMicro,4d61696e-4d69-4637-926f-2e6b69636164,rev?*%
%TF.SameCoordinates,Original*%
%TF.FileFunction,Paste,Bot*%
%TF.FilePolarity,Positive*%
%FSLAX46Y46*%
G04 Gerber Fmt 4.6, Leading zero omitted, Abs format (unit mm)*
G04 Created by KiCad (PCBNEW (6.0.1)) date 2023-10-20 14:42:09*
%MOMM*%
%LPD*%
G01*
G04 APERTURE LIST*
G04 Aperture macros list*
%AMRoundRect*
0 Rectangle with rounded corners*
0 $1 Rounding radius*
0 $2 $3 $4 $5 $6 $7 $8 $9 X,Y pos of 4 corners*
0 Add a 4 corners polygon primitive as box body*
4,1,4,$2,$3,$4,$5,$6,$7,$8,$9,$2,$3,0*
0 Add four circle primitives for the rounded corners*
1,1,$1+$1,$2,$3*
1,1,$1+$1,$4,$5*
1,1,$1+$1,$6,$7*
1,1,$1+$1,$8,$9*
0 Add four rect primitives between the rounded corners*
20,1,$1+$1,$2,$3,$4,$5,0*
20,1,$1+$1,$4,$5,$6,$7,0*
20,1,$1+$1,$6,$7,$8,$9,0*
20,1,$1+$1,$8,$9,$2,$3,0*%
G04 Aperture macros list end*
%ADD10RoundRect,0.250000X-0.350000X-0.450000X0.350000X-0.450000X0.350000X0.450000X-0.350000X0.450000X0*%
%ADD11RoundRect,0.250000X-0.450000X0.350000X-0.450000X-0.350000X0.450000X-0.350000X0.450000X0.350000X0*%
%ADD12RoundRect,0.250000X-0.325000X-0.450000X0.325000X-0.450000X0.325000X0.450000X-0.325000X0.450000X0*%
%ADD13RoundRect,0.250000X0.450000X-0.350000X0.450000X0.350000X-0.450000X0.350000X-0.450000X-0.350000X0*%
%ADD14RoundRect,0.250000X0.337500X0.475000X-0.337500X0.475000X-0.337500X-0.475000X0.337500X-0.475000X0*%
%ADD15RoundRect,0.250000X0.475000X-0.337500X0.475000X0.337500X-0.475000X0.337500X-0.475000X-0.337500X0*%
%ADD16RoundRect,0.250000X-0.475000X0.337500X-0.475000X-0.337500X0.475000X-0.337500X0.475000X0.337500X0*%
%ADD17RoundRect,0.250000X0.350000X0.450000X-0.350000X0.450000X-0.350000X-0.450000X0.350000X-0.450000X0*%
%ADD18RoundRect,0.250000X-0.337500X-0.475000X0.337500X-0.475000X0.337500X0.475000X-0.337500X0.475000X0*%
G04 APERTURE END LIST*
D10*
X203724000Y-101092000D03*
X205724000Y-101092000D03*
D11*
X173482000Y-73930000D03*
X173482000Y-75930000D03*
D12*
X186935000Y-96774000D03*
X188985000Y-96774000D03*
D13*
X154178000Y-79232000D03*
X154178000Y-77232000D03*
D14*
X190543000Y-99314000D03*
X188468000Y-99314000D03*
D15*
X166370000Y-83587500D03*
X166370000Y-81512500D03*
X170180000Y-106193500D03*
X170180000Y-104118500D03*
D13*
X159258000Y-74406000D03*
X159258000Y-72406000D03*
D15*
X179578000Y-89937500D03*
X179578000Y-87862500D03*
D11*
X194564000Y-107458000D03*
X194564000Y-109458000D03*
D13*
X198882000Y-93710000D03*
X198882000Y-91710000D03*
D10*
X175022000Y-86614000D03*
X177022000Y-86614000D03*
D16*
X163830000Y-80496500D03*
X163830000Y-82571500D03*
X158750000Y-96752500D03*
X158750000Y-98827500D03*
D11*
X191516000Y-107204000D03*
X191516000Y-109204000D03*
D15*
X183663500Y-99081500D03*
X183663500Y-97006500D03*
X172974000Y-92731500D03*
X172974000Y-90656500D03*
D17*
X198358000Y-72644000D03*
X196358000Y-72644000D03*
D16*
X188235500Y-92180500D03*
X188235500Y-94255500D03*
D18*
X179810500Y-75184000D03*
X181885500Y-75184000D03*
D10*
X202200000Y-79756000D03*
X204200000Y-79756000D03*
X167148000Y-73660000D03*
X169148000Y-73660000D03*
D18*
X183642000Y-92964000D03*
X185717000Y-92964000D03*
D17*
X156194000Y-83058000D03*
X154194000Y-83058000D03*
X156194000Y-85344000D03*
X154194000Y-85344000D03*
D14*
X177821500Y-102616000D03*
X175746500Y-102616000D03*
X183939000Y-102616000D03*
X181864000Y-102616000D03*
D11*
X187706000Y-73422000D03*
X187706000Y-75422000D03*
D16*
X160274000Y-81512500D03*
X160274000Y-83587500D03*
D11*
X191516000Y-72660000D03*
X191516000Y-74660000D03*
D10*
X162068000Y-73660000D03*
X164068000Y-73660000D03*
D15*
X197612000Y-108987500D03*
X197612000Y-106912500D03*
D10*
X197120000Y-76454000D03*
X199120000Y-76454000D03*
D14*
X182647500Y-78232000D03*
X180572500Y-78232000D03*
M02*
