%FSLAX45Y45*%
G04 Gerber Fmt 4.5, Leading zero omitted, Abs format (unit mm)*
G04 Created by KiCad (PCBNEW (6.0.1)) date 2023-10-20 14:42:29*
%MOMM*%
%LPD*%
G01*
G04 APERTURE LIST*
%TA.AperFunction,Profile*%
%ADD10C,0.100000*%
%TD*%
%ADD11C,0.200000*%
%ADD12C,0.270000*%
G04 APERTURE END LIST*
D10*
X14732000Y-6604000D02*
X21209000Y-6604000D01*
X21209000Y-6604000D02*
X21209000Y-12065000D01*
X14732000Y-12065000D02*
X14732000Y-6604000D01*
X21209000Y-12065000D02*
X14732000Y-12065000D01*
D11*
D12*
X14901800Y-6773800D02*
X15171800Y-7043800D01*
X15171800Y-6773800D02*
X14901800Y-7043800D01*
X14927200Y-11599800D02*
X15197200Y-11869800D01*
X15197200Y-11599800D02*
X14927200Y-11869800D01*
X20743800Y-6799200D02*
X21013800Y-7069200D01*
X21013800Y-6799200D02*
X20743800Y-7069200D01*
X20769200Y-11599800D02*
X21039200Y-11869800D01*
X21039200Y-11599800D02*
X20769200Y-11869800D01*
D11*
X14984619Y-12380476D02*
X14984619Y-12180476D01*
X15032238Y-12180476D01*
X15060809Y-12190000D01*
X15079857Y-12209048D01*
X15089381Y-12228095D01*
X15098905Y-12266190D01*
X15098905Y-12294762D01*
X15089381Y-12332857D01*
X15079857Y-12351905D01*
X15060809Y-12370952D01*
X15032238Y-12380476D01*
X14984619Y-12380476D01*
X15184619Y-12380476D02*
X15184619Y-12247143D01*
X15184619Y-12285238D02*
X15194143Y-12266190D01*
X15203667Y-12256667D01*
X15222714Y-12247143D01*
X15241762Y-12247143D01*
X15308428Y-12380476D02*
X15308428Y-12247143D01*
X15308428Y-12180476D02*
X15298905Y-12190000D01*
X15308428Y-12199524D01*
X15317952Y-12190000D01*
X15308428Y-12180476D01*
X15308428Y-12199524D01*
X15432238Y-12380476D02*
X15413190Y-12370952D01*
X15403667Y-12351905D01*
X15403667Y-12180476D01*
X15537000Y-12380476D02*
X15517952Y-12370952D01*
X15508428Y-12351905D01*
X15508428Y-12180476D01*
X15765571Y-12380476D02*
X15765571Y-12180476D01*
X15832238Y-12323333D01*
X15898905Y-12180476D01*
X15898905Y-12380476D01*
X16079857Y-12380476D02*
X16079857Y-12275714D01*
X16070333Y-12256667D01*
X16051286Y-12247143D01*
X16013190Y-12247143D01*
X15994143Y-12256667D01*
X16079857Y-12370952D02*
X16060809Y-12380476D01*
X16013190Y-12380476D01*
X15994143Y-12370952D01*
X15984619Y-12351905D01*
X15984619Y-12332857D01*
X15994143Y-12313809D01*
X16013190Y-12304286D01*
X16060809Y-12304286D01*
X16079857Y-12294762D01*
X16175095Y-12247143D02*
X16175095Y-12447143D01*
X16175095Y-12256667D02*
X16194143Y-12247143D01*
X16232238Y-12247143D01*
X16251286Y-12256667D01*
X16260809Y-12266190D01*
X16270333Y-12285238D01*
X16270333Y-12342381D01*
X16260809Y-12361428D01*
X16251286Y-12370952D01*
X16232238Y-12380476D01*
X16194143Y-12380476D01*
X16175095Y-12370952D01*
X16356048Y-12361428D02*
X16365571Y-12370952D01*
X16356048Y-12380476D01*
X16346524Y-12370952D01*
X16356048Y-12361428D01*
X16356048Y-12380476D01*
X16356048Y-12256667D02*
X16365571Y-12266190D01*
X16356048Y-12275714D01*
X16346524Y-12266190D01*
X16356048Y-12256667D01*
X16356048Y-12275714D01*
X14527000Y-12610000D02*
X14727000Y-12810000D01*
X14727000Y-12610000D02*
X14527000Y-12810000D01*
X14975095Y-12619524D02*
X14984619Y-12610000D01*
X15003667Y-12600476D01*
X15051286Y-12600476D01*
X15070333Y-12610000D01*
X15079857Y-12619524D01*
X15089381Y-12638571D01*
X15089381Y-12657619D01*
X15079857Y-12686190D01*
X14965571Y-12800476D01*
X15089381Y-12800476D01*
X15175095Y-12781428D02*
X15184619Y-12790952D01*
X15175095Y-12800476D01*
X15165571Y-12790952D01*
X15175095Y-12781428D01*
X15175095Y-12800476D01*
X15251286Y-12600476D02*
X15384619Y-12600476D01*
X15298905Y-12800476D01*
X15498905Y-12600476D02*
X15517952Y-12600476D01*
X15537000Y-12610000D01*
X15546524Y-12619524D01*
X15556048Y-12638571D01*
X15565571Y-12676667D01*
X15565571Y-12724286D01*
X15556048Y-12762381D01*
X15546524Y-12781428D01*
X15537000Y-12790952D01*
X15517952Y-12800476D01*
X15498905Y-12800476D01*
X15479857Y-12790952D01*
X15470333Y-12781428D01*
X15460809Y-12762381D01*
X15451286Y-12724286D01*
X15451286Y-12676667D01*
X15460809Y-12638571D01*
X15470333Y-12619524D01*
X15479857Y-12610000D01*
X15498905Y-12600476D01*
X15689381Y-12600476D02*
X15708428Y-12600476D01*
X15727476Y-12610000D01*
X15737000Y-12619524D01*
X15746524Y-12638571D01*
X15756048Y-12676667D01*
X15756048Y-12724286D01*
X15746524Y-12762381D01*
X15737000Y-12781428D01*
X15727476Y-12790952D01*
X15708428Y-12800476D01*
X15689381Y-12800476D01*
X15670333Y-12790952D01*
X15660809Y-12781428D01*
X15651286Y-12762381D01*
X15641762Y-12724286D01*
X15641762Y-12676667D01*
X15651286Y-12638571D01*
X15660809Y-12619524D01*
X15670333Y-12610000D01*
X15689381Y-12600476D01*
X15841762Y-12800476D02*
X15841762Y-12667143D01*
X15841762Y-12686190D02*
X15851286Y-12676667D01*
X15870333Y-12667143D01*
X15898905Y-12667143D01*
X15917952Y-12676667D01*
X15927476Y-12695714D01*
X15927476Y-12800476D01*
X15927476Y-12695714D02*
X15937000Y-12676667D01*
X15956048Y-12667143D01*
X15984619Y-12667143D01*
X16003667Y-12676667D01*
X16013190Y-12695714D01*
X16013190Y-12800476D01*
X16108428Y-12800476D02*
X16108428Y-12667143D01*
X16108428Y-12686190D02*
X16117952Y-12676667D01*
X16137000Y-12667143D01*
X16165571Y-12667143D01*
X16184619Y-12676667D01*
X16194143Y-12695714D01*
X16194143Y-12800476D01*
X16194143Y-12695714D02*
X16203667Y-12676667D01*
X16222714Y-12667143D01*
X16251286Y-12667143D01*
X16270333Y-12676667D01*
X16279857Y-12695714D01*
X16279857Y-12800476D01*
X16670333Y-12590952D02*
X16498905Y-12848095D01*
X16927476Y-12600476D02*
X16946524Y-12600476D01*
X16965571Y-12610000D01*
X16975095Y-12619524D01*
X16984619Y-12638571D01*
X16994143Y-12676667D01*
X16994143Y-12724286D01*
X16984619Y-12762381D01*
X16975095Y-12781428D01*
X16965571Y-12790952D01*
X16946524Y-12800476D01*
X16927476Y-12800476D01*
X16908429Y-12790952D01*
X16898905Y-12781428D01*
X16889381Y-12762381D01*
X16879857Y-12724286D01*
X16879857Y-12676667D01*
X16889381Y-12638571D01*
X16898905Y-12619524D01*
X16908429Y-12610000D01*
X16927476Y-12600476D01*
X17079857Y-12781428D02*
X17089381Y-12790952D01*
X17079857Y-12800476D01*
X17070333Y-12790952D01*
X17079857Y-12781428D01*
X17079857Y-12800476D01*
X17279857Y-12800476D02*
X17165571Y-12800476D01*
X17222714Y-12800476D02*
X17222714Y-12600476D01*
X17203667Y-12629048D01*
X17184619Y-12648095D01*
X17165571Y-12657619D01*
X17403667Y-12600476D02*
X17422714Y-12600476D01*
X17441762Y-12610000D01*
X17451286Y-12619524D01*
X17460810Y-12638571D01*
X17470333Y-12676667D01*
X17470333Y-12724286D01*
X17460810Y-12762381D01*
X17451286Y-12781428D01*
X17441762Y-12790952D01*
X17422714Y-12800476D01*
X17403667Y-12800476D01*
X17384619Y-12790952D01*
X17375095Y-12781428D01*
X17365571Y-12762381D01*
X17356048Y-12724286D01*
X17356048Y-12676667D01*
X17365571Y-12638571D01*
X17375095Y-12619524D01*
X17384619Y-12610000D01*
X17403667Y-12600476D01*
X17641762Y-12600476D02*
X17603667Y-12600476D01*
X17584619Y-12610000D01*
X17575095Y-12619524D01*
X17556048Y-12648095D01*
X17546524Y-12686190D01*
X17546524Y-12762381D01*
X17556048Y-12781428D01*
X17565571Y-12790952D01*
X17584619Y-12800476D01*
X17622714Y-12800476D01*
X17641762Y-12790952D01*
X17651286Y-12781428D01*
X17660810Y-12762381D01*
X17660810Y-12714762D01*
X17651286Y-12695714D01*
X17641762Y-12686190D01*
X17622714Y-12676667D01*
X17584619Y-12676667D01*
X17565571Y-12686190D01*
X17556048Y-12695714D01*
X17546524Y-12714762D01*
X17727476Y-12600476D02*
X17851286Y-12600476D01*
X17784619Y-12676667D01*
X17813190Y-12676667D01*
X17832238Y-12686190D01*
X17841762Y-12695714D01*
X17851286Y-12714762D01*
X17851286Y-12762381D01*
X17841762Y-12781428D01*
X17832238Y-12790952D01*
X17813190Y-12800476D01*
X17756048Y-12800476D01*
X17737000Y-12790952D01*
X17727476Y-12781428D01*
X17927476Y-12600476D02*
X17927476Y-12638571D01*
X18003667Y-12600476D02*
X18003667Y-12638571D01*
X18298905Y-12876667D02*
X18289381Y-12867143D01*
X18270333Y-12838571D01*
X18260810Y-12819524D01*
X18251286Y-12790952D01*
X18241762Y-12743333D01*
X18241762Y-12705238D01*
X18251286Y-12657619D01*
X18260810Y-12629048D01*
X18270333Y-12610000D01*
X18289381Y-12581428D01*
X18298905Y-12571905D01*
X18460810Y-12667143D02*
X18460810Y-12800476D01*
X18413190Y-12590952D02*
X18365571Y-12733809D01*
X18489381Y-12733809D01*
X18717952Y-12800476D02*
X18717952Y-12600476D01*
X18803667Y-12800476D02*
X18803667Y-12695714D01*
X18794143Y-12676667D01*
X18775095Y-12667143D01*
X18746524Y-12667143D01*
X18727476Y-12676667D01*
X18717952Y-12686190D01*
X18927476Y-12800476D02*
X18908429Y-12790952D01*
X18898905Y-12781428D01*
X18889381Y-12762381D01*
X18889381Y-12705238D01*
X18898905Y-12686190D01*
X18908429Y-12676667D01*
X18927476Y-12667143D01*
X18956048Y-12667143D01*
X18975095Y-12676667D01*
X18984619Y-12686190D01*
X18994143Y-12705238D01*
X18994143Y-12762381D01*
X18984619Y-12781428D01*
X18975095Y-12790952D01*
X18956048Y-12800476D01*
X18927476Y-12800476D01*
X19108429Y-12800476D02*
X19089381Y-12790952D01*
X19079857Y-12771905D01*
X19079857Y-12600476D01*
X19260810Y-12790952D02*
X19241762Y-12800476D01*
X19203667Y-12800476D01*
X19184619Y-12790952D01*
X19175095Y-12771905D01*
X19175095Y-12695714D01*
X19184619Y-12676667D01*
X19203667Y-12667143D01*
X19241762Y-12667143D01*
X19260810Y-12676667D01*
X19270333Y-12695714D01*
X19270333Y-12714762D01*
X19175095Y-12733809D01*
X19346524Y-12790952D02*
X19365571Y-12800476D01*
X19403667Y-12800476D01*
X19422714Y-12790952D01*
X19432238Y-12771905D01*
X19432238Y-12762381D01*
X19422714Y-12743333D01*
X19403667Y-12733809D01*
X19375095Y-12733809D01*
X19356048Y-12724286D01*
X19346524Y-12705238D01*
X19346524Y-12695714D01*
X19356048Y-12676667D01*
X19375095Y-12667143D01*
X19403667Y-12667143D01*
X19422714Y-12676667D01*
X19498905Y-12876667D02*
X19508429Y-12867143D01*
X19527476Y-12838571D01*
X19537000Y-12819524D01*
X19546524Y-12790952D01*
X19556048Y-12743333D01*
X19556048Y-12705238D01*
X19546524Y-12657619D01*
X19537000Y-12629048D01*
X19527476Y-12610000D01*
X19508429Y-12581428D01*
X19498905Y-12571905D01*
X19860810Y-12876667D02*
X19851286Y-12867143D01*
X19832238Y-12838571D01*
X19822714Y-12819524D01*
X19813190Y-12790952D01*
X19803667Y-12743333D01*
X19803667Y-12705238D01*
X19813190Y-12657619D01*
X19822714Y-12629048D01*
X19832238Y-12610000D01*
X19851286Y-12581428D01*
X19860810Y-12571905D01*
X19937000Y-12667143D02*
X19937000Y-12800476D01*
X19937000Y-12686190D02*
X19946524Y-12676667D01*
X19965571Y-12667143D01*
X19994143Y-12667143D01*
X20013190Y-12676667D01*
X20022714Y-12695714D01*
X20022714Y-12800476D01*
X20146524Y-12800476D02*
X20127476Y-12790952D01*
X20117952Y-12781428D01*
X20108429Y-12762381D01*
X20108429Y-12705238D01*
X20117952Y-12686190D01*
X20127476Y-12676667D01*
X20146524Y-12667143D01*
X20175095Y-12667143D01*
X20194143Y-12676667D01*
X20203667Y-12686190D01*
X20213190Y-12705238D01*
X20213190Y-12762381D01*
X20203667Y-12781428D01*
X20194143Y-12790952D01*
X20175095Y-12800476D01*
X20146524Y-12800476D01*
X20270333Y-12667143D02*
X20346524Y-12667143D01*
X20298905Y-12600476D02*
X20298905Y-12771905D01*
X20308429Y-12790952D01*
X20327476Y-12800476D01*
X20346524Y-12800476D01*
X20565571Y-12667143D02*
X20565571Y-12867143D01*
X20565571Y-12676667D02*
X20584619Y-12667143D01*
X20622714Y-12667143D01*
X20641762Y-12676667D01*
X20651286Y-12686190D01*
X20660810Y-12705238D01*
X20660810Y-12762381D01*
X20651286Y-12781428D01*
X20641762Y-12790952D01*
X20622714Y-12800476D01*
X20584619Y-12800476D01*
X20565571Y-12790952D01*
X20775095Y-12800476D02*
X20756048Y-12790952D01*
X20746524Y-12771905D01*
X20746524Y-12600476D01*
X20937000Y-12800476D02*
X20937000Y-12695714D01*
X20927476Y-12676667D01*
X20908429Y-12667143D01*
X20870333Y-12667143D01*
X20851286Y-12676667D01*
X20937000Y-12790952D02*
X20917952Y-12800476D01*
X20870333Y-12800476D01*
X20851286Y-12790952D01*
X20841762Y-12771905D01*
X20841762Y-12752857D01*
X20851286Y-12733809D01*
X20870333Y-12724286D01*
X20917952Y-12724286D01*
X20937000Y-12714762D01*
X21003667Y-12667143D02*
X21079857Y-12667143D01*
X21032238Y-12600476D02*
X21032238Y-12771905D01*
X21041762Y-12790952D01*
X21060810Y-12800476D01*
X21079857Y-12800476D01*
X21222714Y-12790952D02*
X21203667Y-12800476D01*
X21165571Y-12800476D01*
X21146524Y-12790952D01*
X21137000Y-12771905D01*
X21137000Y-12695714D01*
X21146524Y-12676667D01*
X21165571Y-12667143D01*
X21203667Y-12667143D01*
X21222714Y-12676667D01*
X21232238Y-12695714D01*
X21232238Y-12714762D01*
X21137000Y-12733809D01*
X21403667Y-12800476D02*
X21403667Y-12600476D01*
X21403667Y-12790952D02*
X21384619Y-12800476D01*
X21346524Y-12800476D01*
X21327476Y-12790952D01*
X21317952Y-12781428D01*
X21308429Y-12762381D01*
X21308429Y-12705238D01*
X21317952Y-12686190D01*
X21327476Y-12676667D01*
X21346524Y-12667143D01*
X21384619Y-12667143D01*
X21403667Y-12676667D01*
X21479857Y-12876667D02*
X21489381Y-12867143D01*
X21508429Y-12838571D01*
X21517952Y-12819524D01*
X21527476Y-12790952D01*
X21537000Y-12743333D01*
X21537000Y-12705238D01*
X21527476Y-12657619D01*
X21517952Y-12629048D01*
X21508429Y-12610000D01*
X21489381Y-12581428D01*
X21479857Y-12571905D01*
M02*
