%TF.GenerationSoftware,KiCad,Pcbnew,(6.0.1)*%
%TF.CreationDate,2023-10-20T16:16:52-04:00*%
%TF.ProjectId,MainMicro,4d61696e-4d69-4637-926f-2e6b69636164,rev?*%
%TF.SameCoordinates,Original*%
%TF.FileFunction,Soldermask,Top*%
%TF.FilePolarity,Negative*%
%FSLAX46Y46*%
G04 Gerber Fmt 4.6, Leading zero omitted, Abs format (unit mm)*
G04 Created by KiCad (PCBNEW (6.0.1)) date 2023-10-20 16:16:52*
%MOMM*%
%LPD*%
G01*
G04 APERTURE LIST*
G04 Aperture macros list*
%AMRoundRect*
0 Rectangle with rounded corners*
0 $1 Rounding radius*
0 $2 $3 $4 $5 $6 $7 $8 $9 X,Y pos of 4 corners*
0 Add a 4 corners polygon primitive as box body*
4,1,4,$2,$3,$4,$5,$6,$7,$8,$9,$2,$3,0*
0 Add four circle primitives for the rounded corners*
1,1,$1+$1,$2,$3*
1,1,$1+$1,$4,$5*
1,1,$1+$1,$6,$7*
1,1,$1+$1,$8,$9*
0 Add four rect primitives between the rounded corners*
20,1,$1+$1,$2,$3,$4,$5,0*
20,1,$1+$1,$4,$5,$6,$7,0*
20,1,$1+$1,$6,$7,$8,$9,0*
20,1,$1+$1,$8,$9,$2,$3,0*%
G04 Aperture macros list end*
%ADD10RoundRect,0.250000X-0.725000X0.600000X-0.725000X-0.600000X0.725000X-0.600000X0.725000X0.600000X0*%
%ADD11O,1.950000X1.700000*%
%ADD12RoundRect,0.237500X0.237500X-0.287500X0.237500X0.287500X-0.237500X0.287500X-0.237500X-0.287500X0*%
%ADD13RoundRect,0.075000X-0.700000X-0.075000X0.700000X-0.075000X0.700000X0.075000X-0.700000X0.075000X0*%
%ADD14RoundRect,0.075000X-0.075000X-0.700000X0.075000X-0.700000X0.075000X0.700000X-0.075000X0.700000X0*%
%ADD15RoundRect,0.250000X-0.450000X0.350000X-0.450000X-0.350000X0.450000X-0.350000X0.450000X0.350000X0*%
%ADD16RoundRect,0.250000X0.725000X-0.600000X0.725000X0.600000X-0.725000X0.600000X-0.725000X-0.600000X0*%
%ADD17R,1.550000X1.300000*%
%ADD18C,2.700000*%
%ADD19RoundRect,0.250000X-0.600000X-0.725000X0.600000X-0.725000X0.600000X0.725000X-0.600000X0.725000X0*%
%ADD20O,1.700000X1.950000*%
%ADD21RoundRect,0.250000X0.350000X0.450000X-0.350000X0.450000X-0.350000X-0.450000X0.350000X-0.450000X0*%
%ADD22R,2.000000X1.500000*%
%ADD23R,2.000000X3.800000*%
%ADD24RoundRect,0.250000X-0.475000X0.337500X-0.475000X-0.337500X0.475000X-0.337500X0.475000X0.337500X0*%
%ADD25RoundRect,0.250000X-0.350000X-0.450000X0.350000X-0.450000X0.350000X0.450000X-0.350000X0.450000X0*%
%ADD26RoundRect,0.250000X0.600000X0.750000X-0.600000X0.750000X-0.600000X-0.750000X0.600000X-0.750000X0*%
%ADD27O,1.700000X2.000000*%
%ADD28RoundRect,0.250000X0.600000X-0.600000X0.600000X0.600000X-0.600000X0.600000X-0.600000X-0.600000X0*%
%ADD29C,1.700000*%
%ADD30RoundRect,0.250000X0.450000X-0.350000X0.450000X0.350000X-0.450000X0.350000X-0.450000X-0.350000X0*%
%ADD31R,1.350000X0.400000*%
%ADD32R,1.550000X1.500000*%
%ADD33O,1.550000X0.890000*%
%ADD34R,1.550000X1.200000*%
%ADD35O,0.950000X1.250000*%
%ADD36R,2.600000X2.600000*%
%ADD37C,2.600000*%
%ADD38RoundRect,0.100000X0.637500X0.100000X-0.637500X0.100000X-0.637500X-0.100000X0.637500X-0.100000X0*%
%ADD39RoundRect,0.250000X-0.325000X-0.450000X0.325000X-0.450000X0.325000X0.450000X-0.325000X0.450000X0*%
%ADD40RoundRect,0.250000X0.600000X0.725000X-0.600000X0.725000X-0.600000X-0.725000X0.600000X-0.725000X0*%
%ADD41R,0.450000X0.700000*%
%ADD42R,1.200000X0.400000*%
%ADD43RoundRect,0.150000X0.150000X-0.825000X0.150000X0.825000X-0.150000X0.825000X-0.150000X-0.825000X0*%
%ADD44C,0.800000*%
%ADD45C,0.700000*%
G04 APERTURE END LIST*
D10*
X202992000Y-86868000D03*
D11*
X202992000Y-89368000D03*
X202992000Y-91868000D03*
X202992000Y-94368000D03*
X202992000Y-96868000D03*
D12*
X152146000Y-106539000D03*
X152146000Y-104789000D03*
D13*
X180274500Y-93024000D03*
X180274500Y-93524000D03*
X180274500Y-94024000D03*
X180274500Y-94524000D03*
X180274500Y-95024000D03*
X180274500Y-95524000D03*
X180274500Y-96024000D03*
X180274500Y-96524000D03*
X180274500Y-97024000D03*
X180274500Y-97524000D03*
X180274500Y-98024000D03*
X180274500Y-98524000D03*
X180274500Y-99024000D03*
X180274500Y-99524000D03*
X180274500Y-100024000D03*
X180274500Y-100524000D03*
D14*
X182199500Y-102449000D03*
X182699500Y-102449000D03*
X183199500Y-102449000D03*
X183699500Y-102449000D03*
X184199500Y-102449000D03*
X184699500Y-102449000D03*
X185199500Y-102449000D03*
X185699500Y-102449000D03*
X186199500Y-102449000D03*
X186699500Y-102449000D03*
X187199500Y-102449000D03*
X187699500Y-102449000D03*
X188199500Y-102449000D03*
X188699500Y-102449000D03*
X189199500Y-102449000D03*
X189699500Y-102449000D03*
D13*
X191624500Y-100524000D03*
X191624500Y-100024000D03*
X191624500Y-99524000D03*
X191624500Y-99024000D03*
X191624500Y-98524000D03*
X191624500Y-98024000D03*
X191624500Y-97524000D03*
X191624500Y-97024000D03*
X191624500Y-96524000D03*
X191624500Y-96024000D03*
X191624500Y-95524000D03*
X191624500Y-95024000D03*
X191624500Y-94524000D03*
X191624500Y-94024000D03*
X191624500Y-93524000D03*
X191624500Y-93024000D03*
D14*
X189699500Y-91099000D03*
X189199500Y-91099000D03*
X188699500Y-91099000D03*
X188199500Y-91099000D03*
X187699500Y-91099000D03*
X187199500Y-91099000D03*
X186699500Y-91099000D03*
X186199500Y-91099000D03*
X185699500Y-91099000D03*
X185199500Y-91099000D03*
X184699500Y-91099000D03*
X184199500Y-91099000D03*
X183699500Y-91099000D03*
X183199500Y-91099000D03*
X182699500Y-91099000D03*
X182199500Y-91099000D03*
D15*
X197866000Y-106696000D03*
X197866000Y-108696000D03*
D16*
X208788000Y-80772000D03*
D11*
X208788000Y-78272000D03*
X208788000Y-75772000D03*
D17*
X209466000Y-104176000D03*
X201506000Y-104176000D03*
X201506000Y-108676000D03*
X209466000Y-108676000D03*
D18*
X208788000Y-69342000D03*
D16*
X202692000Y-74676000D03*
D11*
X202692000Y-72176000D03*
X202692000Y-69676000D03*
D19*
X191810000Y-68788000D03*
D20*
X194310000Y-68788000D03*
X196810000Y-68788000D03*
D21*
X180832000Y-114046000D03*
X178832000Y-114046000D03*
X158226000Y-89916000D03*
X156226000Y-89916000D03*
D10*
X168148000Y-91694000D03*
D11*
X168148000Y-94194000D03*
X168148000Y-96694000D03*
X168148000Y-99194000D03*
D22*
X172618000Y-104634000D03*
D23*
X178918000Y-106934000D03*
D22*
X172618000Y-106934000D03*
X172618000Y-109234000D03*
D24*
X166370000Y-111992500D03*
X166370000Y-114067500D03*
D19*
X156718000Y-68834000D03*
D20*
X159218000Y-68834000D03*
X161718000Y-68834000D03*
X164218000Y-68834000D03*
X166718000Y-68834000D03*
X169218000Y-68834000D03*
D25*
X171974000Y-113030000D03*
X173974000Y-113030000D03*
D26*
X169652000Y-117902000D03*
D27*
X167152000Y-117902000D03*
D18*
X150622000Y-117348000D03*
D19*
X175514000Y-68834000D03*
D20*
X178014000Y-68834000D03*
X180514000Y-68834000D03*
X183014000Y-68834000D03*
X185514000Y-68834000D03*
D28*
X189495000Y-117065000D03*
D29*
X189495000Y-114525000D03*
X192035000Y-117065000D03*
X192035000Y-114525000D03*
X194575000Y-117065000D03*
X194575000Y-114525000D03*
X197115000Y-117065000D03*
X197115000Y-114525000D03*
X199655000Y-117065000D03*
X199655000Y-114525000D03*
D30*
X149606000Y-106664000D03*
X149606000Y-104664000D03*
D15*
X168910000Y-109998000D03*
X168910000Y-111998000D03*
D31*
X151514000Y-95982000D03*
X151514000Y-96632000D03*
X151514000Y-97282000D03*
X151514000Y-97932000D03*
X151514000Y-98582000D03*
D32*
X148814000Y-98282000D03*
D33*
X148814000Y-100782000D03*
D34*
X148814000Y-94382000D03*
X148814000Y-100182000D03*
D35*
X151514000Y-94782000D03*
D33*
X148814000Y-93782000D03*
D35*
X151514000Y-99782000D03*
D32*
X148814000Y-96282000D03*
D10*
X209296000Y-86868000D03*
D11*
X209296000Y-89368000D03*
X209296000Y-91868000D03*
X209296000Y-94368000D03*
X209296000Y-96868000D03*
D36*
X159016000Y-106068000D03*
D37*
X159016000Y-112068000D03*
X163716000Y-109068000D03*
D38*
X168216500Y-85617000D03*
X168216500Y-84967000D03*
X168216500Y-84317000D03*
X168216500Y-83667000D03*
X168216500Y-83017000D03*
X168216500Y-82367000D03*
X168216500Y-81717000D03*
X168216500Y-81067000D03*
X168216500Y-80417000D03*
X168216500Y-79767000D03*
X168216500Y-79117000D03*
X168216500Y-78467000D03*
X162491500Y-78467000D03*
X162491500Y-79117000D03*
X162491500Y-79767000D03*
X162491500Y-80417000D03*
X162491500Y-81067000D03*
X162491500Y-81717000D03*
X162491500Y-82367000D03*
X162491500Y-83017000D03*
X162491500Y-83667000D03*
X162491500Y-84317000D03*
X162491500Y-84967000D03*
X162491500Y-85617000D03*
D39*
X154169000Y-87376000D03*
X156219000Y-87376000D03*
D40*
X180848000Y-117902000D03*
D20*
X178348000Y-117902000D03*
X175848000Y-117902000D03*
D41*
X175626000Y-92694000D03*
X176926000Y-92694000D03*
X176276000Y-90694000D03*
D18*
X209042000Y-117348000D03*
D16*
X150114000Y-87884000D03*
D11*
X150114000Y-85384000D03*
X150114000Y-82884000D03*
X150114000Y-80384000D03*
X150114000Y-77884000D03*
X150114000Y-75384000D03*
D42*
X163890000Y-100139500D03*
X163890000Y-99504500D03*
X163890000Y-98869500D03*
X163890000Y-98234500D03*
X163890000Y-97599500D03*
X163890000Y-96964500D03*
X163890000Y-96329500D03*
X163890000Y-95694500D03*
X163890000Y-95059500D03*
X163890000Y-94424500D03*
X158690000Y-94424500D03*
X158690000Y-95059500D03*
X158690000Y-95694500D03*
X158690000Y-96329500D03*
X158690000Y-96964500D03*
X158690000Y-97599500D03*
X158690000Y-98234500D03*
X158690000Y-98869500D03*
X158690000Y-99504500D03*
X158690000Y-100139500D03*
D18*
X150368000Y-69088000D03*
D43*
X177800000Y-78167000D03*
X179070000Y-78167000D03*
X180340000Y-78167000D03*
X181610000Y-78167000D03*
X182880000Y-78167000D03*
X184150000Y-78167000D03*
X185420000Y-78167000D03*
X185420000Y-73217000D03*
X184150000Y-73217000D03*
X182880000Y-73217000D03*
X181610000Y-73217000D03*
X180340000Y-73217000D03*
X179070000Y-73217000D03*
X177800000Y-73217000D03*
D44*
X174349023Y-90826977D03*
X174498000Y-92710000D03*
D45*
X163830000Y-84328000D03*
X160274000Y-85598000D03*
D44*
X178308000Y-74676000D03*
D45*
X160274000Y-88367000D03*
D44*
X168148000Y-106680000D03*
X172974000Y-72136000D03*
X153416000Y-102616000D03*
X160549977Y-96795977D03*
D45*
X166624000Y-77724000D03*
X181864000Y-88646000D03*
D44*
X151130000Y-102870000D03*
X184150000Y-76454000D03*
D45*
X182139500Y-98044000D03*
X166370000Y-79756000D03*
X169926000Y-80367500D03*
D44*
X189738000Y-110744000D03*
D45*
X154178000Y-89916000D03*
D44*
X196088000Y-110744000D03*
D45*
X182393500Y-100838000D03*
D44*
X209550000Y-101600000D03*
D45*
X160528000Y-78486000D03*
D44*
X181864000Y-76454000D03*
X168402000Y-114046000D03*
D45*
X188650000Y-100825000D03*
X174752000Y-104140000D03*
D44*
X199644000Y-102616000D03*
D45*
X168910000Y-76962000D03*
X190013500Y-93980000D03*
D44*
X178816000Y-110744000D03*
D45*
X183409500Y-100838000D03*
X193802000Y-89154000D03*
X156718000Y-91694000D03*
X177800000Y-104140000D03*
X181356000Y-106934000D03*
D44*
X179070000Y-76454000D03*
X177800000Y-80264000D03*
D45*
X181356000Y-89662000D03*
X162052000Y-88646000D03*
X190013500Y-100838000D03*
X190013500Y-92710000D03*
X166370000Y-85344000D03*
D44*
X187198000Y-79502000D03*
D45*
X197612000Y-89154000D03*
D44*
X170942000Y-111252000D03*
D45*
X182139500Y-92964000D03*
X155194000Y-100330000D03*
X166325000Y-86825000D03*
X181610000Y-109728000D03*
X178054000Y-96012000D03*
D44*
X199608000Y-108676000D03*
D45*
X173228000Y-88646000D03*
X182175000Y-99075000D03*
D44*
X156972000Y-98806000D03*
X160528000Y-98806000D03*
D45*
X193802000Y-93980000D03*
X194818000Y-99314000D03*
X193548000Y-103378000D03*
X192278000Y-89408000D03*
D44*
X184404000Y-82008971D03*
D45*
X184658000Y-85090000D03*
D44*
X185674000Y-75438000D03*
D45*
X186944000Y-85852000D03*
D44*
X186690000Y-81280000D03*
D45*
X192786000Y-82804000D03*
X190500000Y-85090000D03*
X189878378Y-84187622D03*
X191375622Y-82690378D03*
X181356000Y-83058000D03*
X182118000Y-85666500D03*
X190246000Y-82550000D03*
X189116378Y-83457971D03*
X179832000Y-85666500D03*
X176276000Y-80772000D03*
X183134000Y-86614000D03*
X174519500Y-99822000D03*
D44*
X165862000Y-98806000D03*
D45*
X177292000Y-99822000D03*
X176022000Y-101092000D03*
X177800000Y-100723500D03*
D44*
X173228000Y-97282000D03*
D45*
X158496000Y-85344000D03*
D44*
X155863312Y-98136688D03*
X156210000Y-95758000D03*
X154686000Y-98298000D03*
X156210000Y-94488000D03*
D45*
X196850000Y-98552000D03*
X201930000Y-101092000D03*
X182626000Y-113538000D03*
X193548000Y-97282000D03*
X188976000Y-87630000D03*
X188214000Y-86614000D03*
X187452000Y-87630000D03*
X158496000Y-83058000D03*
X157734000Y-81788000D03*
X159258000Y-76454000D03*
X161544000Y-76454000D03*
X162560000Y-77216000D03*
X183388000Y-106896500D03*
X184404000Y-106896500D03*
X185303503Y-106896500D03*
X186595128Y-106801628D03*
X187960000Y-106426000D03*
X188722000Y-105918000D03*
X189484000Y-105156000D03*
X190246000Y-104140000D03*
D44*
X189484000Y-74676000D03*
X175514000Y-75946000D03*
X185674000Y-82008971D03*
D45*
X185928000Y-85789500D03*
D44*
X169672000Y-113792000D03*
X175768000Y-112776000D03*
D45*
X182372000Y-106896500D03*
M02*
