M48
; DRILL file {KiCad (6.0.1)} date Fri Oct 20 16:16:59 2023
; FORMAT={-:-/ absolute / metric / decimal}
; #@! TF.CreationDate,2023-10-20T16:16:59-04:00
; #@! TF.GenerationSoftware,Kicad,Pcbnew,(6.0.1)
; #@! TF.FileFunction,Plated,1,2,PTH
FMAT,2
METRIC
; #@! TA.AperFunction,Plated,PTH,ViaDrill
T1C0.400
; #@! TA.AperFunction,Plated,PTH,ComponentDrill
T2C0.500
; #@! TA.AperFunction,Plated,PTH,ComponentDrill
T3C0.550
; #@! TA.AperFunction,Plated,PTH,ComponentDrill
T4C0.950
; #@! TA.AperFunction,Plated,PTH,ComponentDrill
T5C1.000
; #@! TA.AperFunction,Plated,PTH,ComponentDrill
T6C1.600
%
G90
G05
T1
X151.13Y-102.87
X153.416Y-102.616
X154.178Y-89.916
X154.686Y-98.298
X155.194Y-100.33
X155.863Y-98.137
X156.21Y-94.488
X156.21Y-95.758
X156.718Y-91.694
X156.972Y-98.806
X157.734Y-81.788
X158.496Y-83.058
X158.496Y-85.344
X159.258Y-76.454
X160.274Y-85.598
X160.274Y-88.367
X160.528Y-78.486
X160.528Y-98.806
X160.55Y-96.796
X161.544Y-76.454
X162.052Y-88.646
X162.56Y-77.216
X163.83Y-84.328
X165.862Y-98.806
X166.325Y-86.825
X166.37Y-79.756
X166.37Y-85.344
X166.624Y-77.724
X168.148Y-106.68
X168.402Y-114.046
X168.91Y-76.962
X169.672Y-113.792
X169.926Y-80.367
X170.942Y-111.252
X172.974Y-72.136
X173.228Y-88.646
X173.228Y-97.282
X174.349Y-90.827
X174.498Y-92.71
X174.519Y-99.822
X174.752Y-104.14
X175.514Y-75.946
X175.768Y-112.776
X176.022Y-101.092
X176.276Y-80.772
X177.292Y-99.822
X177.8Y-80.264
X177.8Y-100.724
X177.8Y-104.14
X178.054Y-96.012
X178.308Y-74.676
X178.816Y-110.744
X179.07Y-76.454
X179.832Y-85.666
X181.356Y-83.058
X181.356Y-89.662
X181.356Y-106.934
X181.61Y-109.728
X181.864Y-76.454
X181.864Y-88.646
X182.118Y-85.666
X182.139Y-92.964
X182.139Y-98.044
X182.175Y-99.075
X182.372Y-106.896
X182.393Y-100.838
X182.626Y-113.538
X183.134Y-86.614
X183.388Y-106.896
X183.409Y-100.838
X184.15Y-76.454
X184.404Y-82.009
X184.404Y-106.896
X184.658Y-85.09
X185.304Y-106.896
X185.674Y-75.438
X185.674Y-82.009
X185.928Y-85.789
X186.595Y-106.802
X186.69Y-81.28
X186.944Y-85.852
X187.198Y-79.502
X187.452Y-87.63
X187.96Y-106.426
X188.214Y-86.614
X188.65Y-100.825
X188.722Y-105.918
X188.976Y-87.63
X189.116Y-83.458
X189.484Y-74.676
X189.484Y-105.156
X189.738Y-110.744
X189.878Y-84.188
X190.013Y-92.71
X190.013Y-93.98
X190.013Y-100.838
X190.246Y-82.55
X190.246Y-104.14
X190.5Y-85.09
X191.376Y-82.69
X192.278Y-89.408
X192.786Y-82.804
X193.548Y-97.282
X193.548Y-103.378
X193.802Y-89.154
X193.802Y-93.98
X194.818Y-99.314
X196.088Y-110.744
X196.85Y-98.552
X197.612Y-89.154
X199.608Y-108.676
X199.644Y-102.616
X201.93Y-101.092
X209.55Y-101.6
T4
X150.114Y-75.384
X150.114Y-77.884
X150.114Y-80.384
X150.114Y-82.884
X150.114Y-85.384
X150.114Y-87.884
X156.718Y-68.834
X159.218Y-68.834
X161.718Y-68.834
X164.218Y-68.834
X166.718Y-68.834
X168.148Y-91.694
X168.148Y-94.194
X168.148Y-96.694
X168.148Y-99.194
X169.218Y-68.834
X175.514Y-68.834
X175.848Y-117.902
X178.014Y-68.834
X178.348Y-117.902
X180.514Y-68.834
X180.848Y-117.902
X183.014Y-68.834
X185.514Y-68.834
X191.81Y-68.788
X194.31Y-68.788
X196.81Y-68.788
X202.692Y-69.676
X202.692Y-72.176
X202.692Y-74.676
X202.992Y-86.868
X202.992Y-89.368
X202.992Y-91.868
X202.992Y-94.368
X202.992Y-96.868
X208.788Y-75.772
X208.788Y-78.272
X208.788Y-80.772
X209.296Y-86.868
X209.296Y-89.368
X209.296Y-91.868
X209.296Y-94.368
X209.296Y-96.868
T5
X167.152Y-117.902
X169.652Y-117.902
X189.495Y-114.525
X189.495Y-117.065
X192.035Y-114.525
X192.035Y-117.065
X194.575Y-114.525
X194.575Y-117.065
X197.115Y-114.525
X197.115Y-117.065
X199.655Y-114.525
X199.655Y-117.065
T6
X159.016Y-106.068
X159.016Y-112.068
X163.716Y-109.068
T2
X149.139Y-93.782G85X148.489Y-93.782
G05
X149.139Y-100.782G85X148.489Y-100.782
G05
T3
X151.514Y-94.632G85X151.514Y-94.932
G05
X151.514Y-99.632G85X151.514Y-99.932
G05
T0
M30
